<svg width="24" height="24" viewBox="0 0 24 24" fill="none" xmlns="http://www.w3.org/2000/svg">
<g clip-path="url(#clip0_642_3880)">
<path fill-rule="evenodd" clip-rule="evenodd" d="M0 12C0 5.3724 5.3724 0 12 0C18.6276 0 24 5.3724 24 12C24 18.6276 18.6276 24 12 24C5.3724 24 0 18.6276 0 12ZM12 2.4C9.45392 2.4 7.01212 3.41143 5.21178 5.21178C3.41143 7.01212 2.4 9.45392 2.4 12C2.4 14.5461 3.41143 16.9879 5.21178 18.7882C7.01212 20.5886 9.45392 21.6 12 21.6C14.5461 21.6 16.9879 20.5886 18.7882 18.7882C20.5886 16.9879 21.6 14.5461 21.6 12C21.6 9.45392 20.5886 7.01212 18.7882 5.21178C16.9879 3.41143 14.5461 2.4 12 2.4Z" fill="white"/>
<path fill-rule="evenodd" clip-rule="evenodd" d="M13.1998 5.9998C13.1998 5.68154 13.0734 5.37632 12.8483 5.15128C12.6233 4.92623 12.3181 4.7998 11.9998 4.7998C11.6815 4.7998 11.3763 4.92623 11.1513 5.15128C10.9262 5.37632 10.7998 5.68154 10.7998 5.9998V10.7998H5.9998C5.68154 10.7998 5.37632 10.9262 5.15128 11.1513C4.92623 11.3763 4.7998 11.6815 4.7998 11.9998C4.7998 12.3181 4.92623 12.6233 5.15128 12.8483C5.37632 13.0734 5.68154 13.1998 5.9998 13.1998H10.7998V17.9998C10.7998 18.3181 10.9262 18.6233 11.1513 18.8483C11.3763 19.0734 11.6815 19.1998 11.9998 19.1998C12.3181 19.1998 12.6233 19.0734 12.8483 18.8483C13.0734 18.6233 13.1998 18.3181 13.1998 17.9998V13.1998H17.9998C18.3181 13.1998 18.6233 13.0734 18.8483 12.8483C19.0734 12.6233 19.1998 12.3181 19.1998 11.9998C19.1998 11.6815 19.0734 11.3763 18.8483 11.1513C18.6233 10.9262 18.3181 10.7998 17.9998 10.7998H13.1998V5.9998Z" fill="white"/>
</g>
<defs>
<clipPath id="clip0_642_3880">
<rect width="24" height="24" fill="white"/>
</clipPath>
</defs>
</svg>
