<svg width="32" height="32" viewBox="0 0 32 32" fill="none" xmlns="http://www.w3.org/2000/svg">
<path d="M16.7953 4.21C16.3053 3.93 15.7003 3.93 15.2053 4.21L4.00532 10.61C3.37532 10.97 3.06532 11.71 3.25032 12.41C3.43532 13.11 4.07532 13.6 4.80032 13.6H6.40032V24L3.84032 25.92C3.43532 26.22 3.20032 26.695 3.20032 27.2C3.20032 28.085 3.91532 28.8 4.80032 28.8H27.2003C28.0853 28.8 28.8003 28.085 28.8003 27.2C28.8003 26.695 28.5653 26.22 28.1603 25.92L25.6003 24V13.6H27.2003C27.9253 13.6 28.5603 13.11 28.7453 12.41C28.9303 11.71 28.6203 10.97 27.9903 10.61L16.7903 4.21H16.7953ZM23.2003 13.6V24H20.0003V13.6H23.2003ZM17.6003 13.6V24H14.4003V13.6H17.6003ZM12.0003 13.6V24H8.80032V13.6H12.0003ZM16.0003 8C16.8853 8 17.6003 8.715 17.6003 9.6C17.6003 10.485 16.8853 11.2 16.0003 11.2C15.1153 11.2 14.4003 10.485 14.4003 9.6C14.4003 8.715 15.1153 8 16.0003 8Z" fill="white"/>
</svg>
