<svg width="40" height="40" viewBox="0 0 40 40" fill="none" xmlns="http://www.w3.org/2000/svg">
<rect width="40" height="40" rx="20" fill="#FFF7F7"/>
<path d="M20 40C31.0458 40 40 31.045 40 20C40 8.95333 31.0458 0 20 0C8.95417 0 0 8.95417 0 20C0 31.045 8.95417 40 20 40Z" fill="#FFF7F7"/>
<path d="M15.4517 30.863C15.8339 30.863 16.2004 30.705 16.4706 30.4237C16.7409 30.1424 16.8927 29.761 16.8927 29.3632C16.8927 28.9654 16.7409 28.584 16.4706 28.3027C16.2004 28.0214 15.8339 27.8634 15.4517 27.8634C15.0695 27.8634 14.703 28.0214 14.4328 28.3027C14.1626 28.584 14.0107 28.9654 14.0107 29.3632C14.0107 29.761 14.1626 30.1424 14.4328 30.4237C14.703 30.705 15.0695 30.863 15.4517 30.863ZM25.5353 30.863C25.7274 30.8678 25.9184 30.8325 26.0972 30.7593C26.276 30.6861 26.4389 30.5764 26.5764 30.4367C26.7139 30.297 26.8231 30.1301 26.8977 29.9458C26.9723 29.7616 27.0107 29.5636 27.0107 29.3636C27.0107 29.1636 26.9723 28.9657 26.8977 28.7814C26.8231 28.5971 26.7139 28.4302 26.5764 28.2905C26.4389 28.1508 26.276 28.0411 26.0972 27.9679C25.9184 27.8947 25.7274 27.8595 25.5353 27.8643C25.1618 27.8774 24.8078 28.0411 24.548 28.3208C24.2883 28.6005 24.1431 28.9742 24.1431 29.3632C24.1431 29.7522 24.2883 30.1259 24.548 30.4056C24.8078 30.6853 25.1618 30.8498 25.5353 30.863Z" fill="#E20512"/>
<path d="M27.309 26.4439H15.8425L16.6469 22.8967H15.411C15.3412 22.8948 15.2719 22.8836 15.2049 22.8634L14.0845 26.8366C14.0312 26.9448 14.0061 27.065 14.0115 27.1858C14.0169 27.3067 14.0526 27.4241 14.1154 27.5269C14.1782 27.6298 14.2658 27.7147 14.37 27.7736C14.4742 27.8325 14.5916 27.8634 14.7109 27.8634H27.3106C27.4963 27.8634 27.6744 27.7886 27.8057 27.6555C27.937 27.5224 28.0107 27.3419 28.0107 27.1537C28.0107 26.9654 27.937 26.7849 27.8057 26.6518C27.6744 26.5187 27.4963 26.4439 27.3106 26.4439" fill="#E20512"/>
<path d="M30.8656 12.8631C30.8014 12.7811 30.7192 12.7147 30.6254 12.669C30.5315 12.6234 30.4283 12.5997 30.3238 12.5997H13.1173C13.1016 12.6002 13.0858 12.6018 13.07 12.6044L12.4076 10.3809C12.3706 10.2329 12.2847 10.1015 12.1638 10.0077C12.0429 9.91391 11.8938 9.86311 11.7404 9.86341H9.67589C9.49744 9.86942 9.32832 9.94412 9.20422 10.0718C9.08011 10.1994 9.01074 10.37 9.01074 10.5475C9.01074 10.725 9.08011 10.8956 9.20422 11.0232C9.32832 11.1508 9.49744 11.2255 9.67589 11.2315H11.2026L14.514 22.3452C14.5509 22.4934 14.6367 22.6251 14.7578 22.719C14.879 22.813 15.0283 22.8638 15.1819 22.8634H27.5708C27.7139 22.8613 27.853 22.8162 27.9698 22.734C28.103 22.64 28.1981 22.5019 28.2379 22.3444L30.9902 13.4496C31.0156 13.3488 31.0175 13.2435 30.9957 13.1419C30.974 13.0403 30.93 12.9449 30.8656 12.8631ZM26.5377 13.9686V16.0212H24.4732V13.9686H26.5377ZM27.2254 20.988V19.4427H27.7143L27.2254 20.988ZM27.2254 18.7582V16.7056H28.577L27.9296 18.7582H27.2254ZM26.5377 18.7582H24.4732V16.7056H26.5385L26.5377 18.7582ZM14.2924 16.7056H15.5257V18.7582H14.9035L14.2924 16.7056ZM16.2142 16.7056H18.2787V18.7582H16.2142V16.7056ZM18.9664 16.7056H21.0317V18.7582H18.9672L18.9664 16.7056ZM21.7202 16.7056H23.7847V18.7582H21.721L21.7202 16.7056ZM23.7847 13.9686V16.0212H21.721V13.9686H23.7847ZM21.0317 13.9686V16.0212H18.9672V13.9686H21.0317ZM18.2787 13.9686V16.0212H16.2142V13.9686H18.2787ZM15.5257 13.9686V16.0212H14.0881L13.4769 13.9686H15.5257ZM15.1078 19.4419H15.5257V20.8461L15.1078 19.4419ZM16.2142 21.4945V19.4427H18.2787V21.4961L16.2142 21.4945ZM18.9664 21.4945V19.4427H21.0317V21.4961L18.9664 21.4945ZM21.7202 21.4945V19.4427H23.7847V21.4961L21.7202 21.4945ZM24.4724 21.4945V19.4427H26.5377V21.4961L24.4724 21.4945ZM28.7939 16.0212H27.2254V13.9686H29.4413L28.7939 16.0212Z" fill="#E20512"/>
<path d="M9.94194 12.9994C10.2099 13.0058 10.4764 12.9588 10.7258 12.8612C10.9752 12.7636 11.2024 12.6173 11.3942 12.431C11.5859 12.2447 11.7383 12.0222 11.8424 11.7764C11.9464 11.5307 12 11.2667 12 11C12 10.7333 11.9464 10.4693 11.8424 10.2236C11.7383 9.97783 11.5859 9.75526 11.3942 9.56897C11.2024 9.38267 10.9752 9.23641 10.7258 9.1388C10.4764 9.04119 10.2099 8.99419 9.94194 9.00057C9.42094 9.01813 8.92718 9.23641 8.56486 9.60935C8.20253 9.98229 8 10.4807 8 10.9994C8 11.5181 8.20253 12.0166 8.56486 12.3895C8.92718 12.7624 9.42094 12.9819 9.94194 12.9994Z" fill="#E20512"/>
</svg>
