<svg width="50" height="50" viewBox="0 0 50 50" fill="none" xmlns="http://www.w3.org/2000/svg">
<rect width="50" height="50" rx="25" fill="#FAD7D9"/>
<path d="M19.0432 13C19.7338 13 22.4964 19.2158 22.4964 19.9065C22.4964 21.2878 20.4245 22.6691 19.7338 24.0504C19.0432 25.4317 20.4245 26.813 21.8058 28.1942C22.3445 28.7329 24.5683 30.9568 25.9496 30.2662C27.3309 29.5755 28.7122 27.5036 30.0935 27.5036C30.7842 27.5036 37 30.2662 37 30.9568C37 33.7194 34.9281 35.7914 32.8561 36.482C30.7842 37.1727 29.4029 37.1727 26.6403 36.482C23.8777 35.7914 21.8058 35.1007 18.3525 31.6475C14.8993 28.1942 14.2086 26.1223 13.518 23.3597C12.8273 20.5971 12.8273 19.2158 13.518 17.1439C14.2086 15.0719 16.2806 13 19.0432 13Z" fill="url(#paint0_linear_594_1355)"/>
<defs>
<linearGradient id="paint0_linear_594_1355" x1="37" y1="26.75" x2="12.998" y2="26.821" gradientUnits="userSpaceOnUse">
<stop stop-color="#E20512"/>
<stop offset="1" stop-color="#AD010B"/>
</linearGradient>
</defs>
</svg>
