<svg width="40" height="40" viewBox="0 0 40 40" fill="none" xmlns="http://www.w3.org/2000/svg">
<g clip-path="url(#clip0_615_1375)">
<path d="M15.6366 31.6356C16.0225 31.6356 16.3926 31.4822 16.6655 31.2093C16.9384 30.9365 17.0916 30.5665 17.0916 30.1806C17.0916 29.7947 16.9384 29.4246 16.6655 29.1517C16.3926 28.8788 16.0225 28.7256 15.6366 28.7256C15.2508 28.7256 14.8808 28.8788 14.6079 29.1517C14.335 29.4246 14.1816 29.7947 14.1816 30.1806C14.1816 30.5665 14.335 30.9365 14.6079 31.2093C14.8808 31.4822 15.2508 31.6356 15.6366 31.6356ZM25.8184 31.6356C26.0123 31.6402 26.2053 31.606 26.3858 31.535C26.5663 31.464 26.7308 31.3576 26.8696 31.2221C27.0084 31.0865 27.1188 30.9246 27.194 30.7458C27.2694 30.567 27.3081 30.375 27.3081 30.181C27.3081 29.987 27.2694 29.795 27.194 29.6161C27.1188 29.4373 27.0084 29.2755 26.8696 29.1398C26.7308 29.0043 26.5663 28.898 26.3858 28.827C26.2053 28.756 26.0123 28.7217 25.8184 28.7263C25.4413 28.7391 25.0838 28.898 24.8215 29.1692C24.5593 29.4406 24.4126 29.8032 24.4126 30.1806C24.4126 30.558 24.5593 30.9205 24.8215 31.1918C25.0838 31.4631 25.4413 31.6228 25.8184 31.6356Z" fill="#E20512"/>
<path d="M27.2726 27.2716H15.3585L16.1942 23.6358H14.9101C14.8376 23.6338 14.7656 23.6223 14.696 23.6016L13.5317 27.6741C13.4763 27.7851 13.4502 27.9082 13.4558 28.0321C13.4615 28.1559 13.4987 28.2763 13.5638 28.3817C13.6291 28.4872 13.7201 28.5742 13.8285 28.6346C13.9367 28.6949 14.0586 28.7266 14.1826 28.7266H27.2742C27.4672 28.7266 27.6522 28.6499 27.7887 28.5136C27.9251 28.3771 28.0017 28.1921 28.0017 27.9991C28.0017 27.8062 27.9251 27.6211 27.7887 27.4847C27.6522 27.3483 27.4672 27.2716 27.2742 27.2716" fill="#E20512"/>
<path d="M31.4817 13.0067C31.414 12.9195 31.3271 12.8489 31.228 12.8004C31.1287 12.7519 31.0197 12.7267 30.9092 12.7267H12.7267C12.7101 12.7273 12.6935 12.7289 12.6767 12.7317L11.9768 10.3684C11.9376 10.2111 11.8469 10.0714 11.7191 9.97174C11.5914 9.87205 11.4338 9.81805 11.2718 9.81836H9.09009C8.90152 9.82475 8.72281 9.90415 8.59166 10.0398C8.46052 10.1755 8.38721 10.3568 8.38721 10.5454C8.38721 10.7341 8.46052 10.9154 8.59166 11.0511C8.72281 11.1867 8.90152 11.2661 9.09009 11.2725H10.7034L14.2026 23.085C14.2416 23.2427 14.3323 23.3825 14.4603 23.4824C14.5883 23.5823 14.7461 23.6363 14.9085 23.6359H28.0001C28.1513 23.6335 28.2983 23.5857 28.4217 23.4984C28.5625 23.3984 28.663 23.2515 28.7051 23.0842L31.6135 13.63C31.6402 13.5229 31.6423 13.411 31.6193 13.303C31.5963 13.195 31.5498 13.0937 31.4817 13.0067ZM26.9085 14.1817V16.3634H24.7267V14.1817H26.9085ZM27.6351 21.6425V20H28.1517L27.6351 21.6425ZM27.6351 19.2725V17.0909H29.0635L28.3792 19.2725H27.6351ZM26.9085 19.2725H24.7267V17.0909H26.9092L26.9085 19.2725ZM13.9685 17.0909H15.2717V19.2725H14.6142L13.9685 17.0909ZM15.9992 17.0909H18.181V19.2725H15.9992V17.0909ZM18.9076 17.0909H21.0901V19.2725H18.9085L18.9076 17.0909ZM21.8176 17.0909H23.9992V19.2725H21.8185L21.8176 17.0909ZM23.9992 14.1817V16.3634H21.8185V14.1817H23.9992ZM21.0901 14.1817V16.3634H18.9085V14.1817H21.0901ZM18.181 14.1817V16.3634H15.9992V14.1817H18.181ZM15.2717 14.1817V16.3634H13.7526L13.1067 14.1817H15.2717ZM14.8301 19.9992H15.2717V21.4917L14.8301 19.9992ZM15.9992 22.1809V20H18.181V22.1825L15.9992 22.1809ZM18.9076 22.1809V20H21.0901V22.1825L18.9076 22.1809ZM21.8176 22.1809V20H23.9992V22.1825L21.8176 22.1809ZM24.726 22.1809V20H26.9085V22.1825L24.726 22.1809ZM29.2926 16.3634H27.6351V14.1817H29.9767L29.2926 16.3634Z" fill="#E20512"/>
<path d="M9.81836 12.0004C10.0123 12.0051 10.2052 11.9709 10.3858 11.8998C10.5663 11.8288 10.7308 11.7224 10.8696 11.5869C11.0084 11.4514 11.1188 11.2895 11.1941 11.1107C11.2694 10.9319 11.3082 10.7398 11.3082 10.5458C11.3082 10.3518 11.2694 10.1598 11.1941 9.98098C11.1188 9.80219 11.0084 9.64028 10.8696 9.50474C10.7308 9.36921 10.5663 9.26281 10.3858 9.1918C10.2052 9.12079 10.0123 9.08659 9.81836 9.09124C9.44121 9.104 9.08377 9.2628 8.8215 9.53413C8.55921 9.80544 8.4126 10.168 8.4126 10.5454C8.4126 10.9228 8.55921 11.2854 8.8215 11.5567C9.08377 11.828 9.44121 11.9876 9.81836 12.0004Z" fill="#E20512"/>
</g>
<defs>
<clipPath id="clip0_615_1375">
<rect width="40" height="40" fill="white"/>
</clipPath>
</defs>
</svg>
