<svg width="40" height="40" viewBox="0 0 40 40" fill="none" xmlns="http://www.w3.org/2000/svg">
<path d="M20 40C31.0458 40 40 31.045 40 20C40 8.95333 31.0458 0 20 0C8.95417 0 0 8.95417 0 20C0 31.045 8.95417 40 20 40Z" fill="#FFF7F7"/>
<path d="M15.4517 30.8629C15.8339 30.8629 16.2004 30.7048 16.4706 30.4236C16.7409 30.1423 16.8927 29.7608 16.8927 29.3631C16.8927 28.9653 16.7409 28.5838 16.4706 28.3026C16.2004 28.0213 15.8339 27.8633 15.4517 27.8633C15.0695 27.8633 14.703 28.0213 14.4328 28.3026C14.1626 28.5838 14.0107 28.9653 14.0107 29.3631C14.0107 29.7608 14.1626 30.1423 14.4328 30.4236C14.703 30.7048 15.0695 30.8629 15.4517 30.8629ZM25.5353 30.8629C25.7274 30.8676 25.9184 30.8324 26.0972 30.7592C26.276 30.686 26.4389 30.5763 26.5764 30.4366C26.7139 30.2969 26.8231 30.13 26.8977 29.9457C26.9723 29.7614 27.0107 29.5635 27.0107 29.3635C27.0107 29.1635 26.9723 28.9656 26.8977 28.7813C26.8231 28.597 26.7139 28.4301 26.5764 28.2904C26.4389 28.1507 26.276 28.041 26.0972 27.9678C25.9184 27.8946 25.7274 27.8594 25.5353 27.8641C25.1618 27.8773 24.8078 28.041 24.548 28.3207C24.2883 28.6003 24.1431 28.9741 24.1431 29.3631C24.1431 29.752 24.2883 30.1258 24.548 30.4055C24.8078 30.6851 25.1618 30.8497 25.5353 30.8629Z" fill="#E20512"/>
<path d="M27.309 26.4438H15.8425L16.6469 22.8966H15.411C15.3412 22.8947 15.2719 22.8834 15.2049 22.8633L14.0845 26.8365C14.0312 26.9447 14.0061 27.0649 14.0115 27.1857C14.0169 27.3065 14.0526 27.4239 14.1154 27.5268C14.1782 27.6297 14.2658 27.7146 14.37 27.7735C14.4742 27.8324 14.5916 27.8633 14.7109 27.8633H27.3106C27.4963 27.8633 27.6744 27.7885 27.8057 27.6554C27.937 27.5223 28.0107 27.3418 28.0107 27.1535C28.0107 26.9653 27.937 26.7848 27.8057 26.6517C27.6744 26.5185 27.4963 26.4438 27.3106 26.4438" fill="#E20512"/>
<path d="M30.8656 12.863C30.8014 12.7809 30.7192 12.7146 30.6254 12.6689C30.5315 12.6232 30.4283 12.5995 30.3238 12.5995H13.1173C13.1016 12.6001 13.0858 12.6016 13.07 12.6043L12.4076 10.3807C12.3706 10.2328 12.2847 10.1014 12.1638 10.0076C12.0429 9.91378 11.8938 9.86298 11.7404 9.86328H9.67589C9.49744 9.86929 9.32832 9.94399 9.20422 10.0716C9.08011 10.1993 9.01074 10.3698 9.01074 10.5473C9.01074 10.7249 9.08011 10.8954 9.20422 11.0231C9.32832 11.1507 9.49744 11.2254 9.67589 11.2314H11.2026L14.514 22.345C14.5509 22.4933 14.6367 22.6249 14.7578 22.7189C14.879 22.8129 15.0283 22.8637 15.1819 22.8633H27.5708C27.7139 22.8611 27.853 22.816 27.9698 22.7339C28.103 22.6399 28.1981 22.5017 28.2379 22.3443L30.9902 13.4494C31.0156 13.3486 31.0175 13.2434 30.9957 13.1418C30.974 13.0401 30.93 12.9448 30.8656 12.863ZM26.5377 13.9685V16.0211H24.4732V13.9685H26.5377ZM27.2254 20.9879V19.4426H27.7143L27.2254 20.9879ZM27.2254 18.7581V16.7055H28.577L27.9296 18.7581H27.2254ZM26.5377 18.7581H24.4732V16.7055H26.5385L26.5377 18.7581ZM14.2924 16.7055H15.5257V18.7581H14.9035L14.2924 16.7055ZM16.2142 16.7055H18.2787V18.7581H16.2142V16.7055ZM18.9664 16.7055H21.0317V18.7581H18.9672L18.9664 16.7055ZM21.7202 16.7055H23.7847V18.7581H21.721L21.7202 16.7055ZM23.7847 13.9685V16.0211H21.721V13.9685H23.7847ZM21.0317 13.9685V16.0211H18.9672V13.9685H21.0317ZM18.2787 13.9685V16.0211H16.2142V13.9685H18.2787ZM15.5257 13.9685V16.0211H14.0881L13.4769 13.9685H15.5257ZM15.1078 19.4418H15.5257V20.846L15.1078 19.4418ZM16.2142 21.4944V19.4426H18.2787V21.4959L16.2142 21.4944ZM18.9664 21.4944V19.4426H21.0317V21.4959L18.9664 21.4944ZM21.7202 21.4944V19.4426H23.7847V21.4959L21.7202 21.4944ZM24.4724 21.4944V19.4426H26.5377V21.4959L24.4724 21.4944ZM28.7939 16.0211H27.2254V13.9685H29.4413L28.7939 16.0211Z" fill="#E20512"/>
<path d="M9.94194 12.9994C10.2099 13.0058 10.4764 12.9588 10.7258 12.8612C10.9752 12.7636 11.2024 12.6173 11.3942 12.431C11.5859 12.2447 11.7383 12.0222 11.8424 11.7764C11.9464 11.5307 12 11.2667 12 11C12 10.7333 11.9464 10.4693 11.8424 10.2236C11.7383 9.97783 11.5859 9.75526 11.3942 9.56897C11.2024 9.38267 10.9752 9.23641 10.7258 9.1388C10.4764 9.04119 10.2099 8.99419 9.94194 9.00057C9.42094 9.01813 8.92718 9.23641 8.56486 9.60935C8.20253 9.98229 8 10.4807 8 10.9994C8 11.5181 8.20253 12.0166 8.56486 12.3895C8.92718 12.7624 9.42094 12.9819 9.94194 12.9994Z" fill="#E20512"/>
</svg>
