<svg width="24" height="24" viewBox="0 0 24 24" fill="none" xmlns="http://www.w3.org/2000/svg">
<path d="M22.6582 7.02802C23.1139 6.56619 23.1139 5.81646 22.6582 5.34863C22.2024 4.8808 21.4647 4.88679 21.009 5.34863L9.3895 17.1344L3.99208 11.6613C3.88459 11.5516 3.75629 11.4645 3.6147 11.405C3.4731 11.3455 3.32106 11.3148 3.16747 11.3148C3.01388 11.3148 2.86184 11.3455 2.72025 11.405C2.57865 11.4645 2.45035 11.5516 2.34286 11.6613C2.1231 11.8856 2 12.1871 2 12.501C2 12.815 2.1231 13.1165 2.34286 13.3407L8.56489 19.6535C8.67238 19.7632 8.80068 19.8503 8.94228 19.9098C9.08387 19.9694 9.23591 20 9.3895 20C9.54309 20 9.69513 19.9694 9.83672 19.9098C9.97832 19.8503 10.1066 19.7632 10.2141 19.6535L22.6582 7.02802Z" fill="url(#paint0_linear_615_1261)"/>
<defs>
<linearGradient id="paint0_linear_615_1261" x1="23" y1="13.5937" x2="1.99842" y2="13.6807" gradientUnits="userSpaceOnUse">
<stop stop-color="#E20512"/>
<stop offset="1" stop-color="#AD010B"/>
</linearGradient>
</defs>
</svg>
