<svg width="26" height="26" viewBox="0 0 26 26" fill="none" xmlns="http://www.w3.org/2000/svg">
<path d="M12.9994 23.8332C14.4223 23.8349 15.8315 23.5555 17.1461 23.011C18.4607 22.4664 19.6547 21.6675 20.6596 20.6601C21.667 19.6552 22.4659 18.4612 23.0105 17.1466C23.555 15.832 23.8344 14.4228 23.8327 12.9998C23.8344 11.5769 23.555 10.1677 23.0105 8.85311C22.4659 7.53852 21.667 6.34448 20.6596 5.3396C19.6547 4.33218 18.4607 3.53326 17.1461 2.98872C15.8315 2.44418 14.4223 2.16476 12.9994 2.16651C11.5764 2.16476 10.1672 2.44418 8.85262 2.98872C7.53803 3.53326 6.34399 4.33218 5.33911 5.3396C4.33169 6.34448 3.53277 7.53852 2.98823 8.85311C2.44369 10.1677 2.16427 11.5769 2.16602 12.9998C2.16427 14.4228 2.44369 15.832 2.98823 17.1466C3.53277 18.4612 4.33169 19.6552 5.33911 20.6601C6.34399 21.6675 7.53803 22.4664 8.85262 23.011C10.1672 23.5555 11.5764 23.8349 12.9994 23.8332Z" stroke="#E20512" stroke-width="2" stroke-linejoin="round"/>
<path d="M8.66602 13L11.916 16.25L18.416 9.75" stroke="#E20512" stroke-width="2" stroke-linecap="round" stroke-linejoin="round"/>
</svg>
