<svg width="16" height="28" viewBox="0 0 16 28" fill="none" xmlns="http://www.w3.org/2000/svg">
<path d="M13.6035 0.500977C13.8424 0.494387 14.0809 0.533921 14.3047 0.617188C14.5284 0.700443 14.7339 0.825798 14.9092 0.987305C15.0845 1.14892 15.2268 1.34316 15.3262 1.55957C15.4255 1.77598 15.4804 2.01016 15.4873 2.24805C15.4942 2.48603 15.453 2.72349 15.3662 2.94531C15.2795 3.16686 15.1481 3.36794 14.9824 3.53906L4.86035 13.9922L14.9834 24.4482H14.9824C15.1499 24.6177 15.2822 24.8183 15.3711 25.0391C15.4609 25.2619 15.5054 25.5002 15.5 25.7402C15.4946 25.9803 15.4404 26.2169 15.3408 26.4355C15.2413 26.6541 15.0978 26.8498 14.9209 27.0127C14.744 27.1756 14.5366 27.3026 14.3105 27.3857C14.0846 27.4689 13.8443 27.5073 13.6035 27.499C13.3627 27.4907 13.1249 27.4356 12.9053 27.3369C12.6859 27.2383 12.488 27.0977 12.3232 26.9229V26.9219L1.00488 15.2334C0.681984 14.9003 0.500122 14.4566 0.5 13.9932C0.5 13.5296 0.681862 13.0852 1.00488 12.752L12.3281 1.05957V1.05859C12.494 0.887544 12.6925 0.75076 12.9111 0.655273C13.1297 0.559861 13.3649 0.507606 13.6035 0.500977Z" fill="#E20512" stroke="#E20512"/>
</svg>
