<svg width="32" height="32" viewBox="0 0 32 32" fill="none" xmlns="http://www.w3.org/2000/svg">
<path fill-rule="evenodd" clip-rule="evenodd" d="M16.0001 18.8294L8.92946 25.9C8.55426 26.2752 8.04539 26.486 7.51479 26.486C6.98419 26.486 6.47532 26.2752 6.10012 25.9C5.72493 25.5248 5.51415 25.016 5.51415 24.4854C5.51415 23.9548 5.72493 23.4459 6.10012 23.0707L13.1735 16L6.10146 8.92936C5.91577 8.74358 5.76849 8.52305 5.66803 8.28035C5.56757 8.03766 5.51589 7.77755 5.51595 7.51489C5.51601 7.25222 5.56781 6.99214 5.66839 6.74949C5.76896 6.50684 5.91635 6.28638 6.10212 6.10069C6.2879 5.915 6.50843 5.76772 6.75113 5.66726C6.99382 5.5668 7.25393 5.51513 7.51659 5.51519C7.77926 5.51525 8.03934 5.56705 8.28199 5.66762C8.52464 5.7682 8.7451 5.91558 8.93079 6.10136L16.0001 13.172L23.0708 6.10136C23.2552 5.91025 23.4758 5.75779 23.7198 5.65285C23.9637 5.54792 24.2261 5.49263 24.4917 5.4902C24.7573 5.48776 25.0206 5.53824 25.2665 5.63869C25.5123 5.73914 25.7357 5.88754 25.9236 6.07523C26.1114 6.26293 26.26 6.48616 26.3607 6.73191C26.4614 6.97765 26.5121 7.24098 26.5099 7.50654C26.5078 7.7721 26.4527 8.03457 26.348 8.27862C26.2433 8.52268 26.0911 8.74344 25.9001 8.92803L18.8268 16L25.8988 23.072C26.0897 23.2566 26.242 23.4774 26.3467 23.7214C26.4514 23.9655 26.5064 24.2279 26.5086 24.4935C26.5108 24.7591 26.4601 25.0224 26.3594 25.2681C26.2587 25.5139 26.1101 25.7371 25.9222 25.9248C25.7344 26.1125 25.511 26.2609 25.2651 26.3614C25.0193 26.4618 24.7559 26.5123 24.4904 26.5099C24.2248 26.5074 23.9624 26.4521 23.7184 26.3472C23.4745 26.2423 23.2539 26.0898 23.0695 25.8987L16.0001 18.8294Z" fill="#D0D0D0"/>
</svg>
