<svg width="40" height="40" viewBox="0 0 40 40" fill="none" xmlns="http://www.w3.org/2000/svg">
<rect width="40" height="40" rx="20" fill="#FFF7F7"/>
<path d="M19.0671 8.75C17.7311 8.75 16.4499 9.28071 15.5052 10.2254C14.5605 11.1701 14.0298 12.4513 14.0298 13.7873C14.0298 15.1233 14.5605 16.4045 15.5052 17.3492C16.4499 18.2939 17.7311 18.8246 19.0671 18.8246C20.4031 18.8246 21.6843 18.2939 22.629 17.3492C23.5737 16.4045 24.1044 15.1233 24.1044 13.7873C24.1044 12.4513 23.5737 11.1701 22.629 10.2254C21.6843 9.28071 20.4031 8.75 19.0671 8.75ZM19.0671 19.832C19.6629 19.8334 20.2418 19.8737 20.804 19.9529C20.993 19.9793 21.1707 20.0589 21.3162 20.1824C21.4618 20.3059 21.5693 20.4682 21.6262 20.6504C21.6831 20.8326 21.6871 21.0272 21.6376 21.2116C21.5882 21.3959 21.4874 21.5625 21.347 21.6918C20.5178 22.4514 19.8829 23.3987 19.4955 24.4543C19.1081 25.51 18.9795 26.6431 19.1205 27.7587C19.1383 27.902 19.1251 28.0475 19.0817 28.1853C19.0383 28.3231 18.9658 28.4499 18.8691 28.5572C18.7724 28.6645 18.6538 28.7498 18.5213 28.8072C18.3887 28.8646 18.2454 28.8929 18.101 28.8901C16.076 28.8498 14.182 28.6725 12.7675 28.2392C12.0602 28.0226 11.3933 27.7184 10.8876 27.2701C10.3526 26.7966 10 26.1588 10 25.373C10 24.5802 10.3607 23.8387 10.8503 23.2181C11.348 22.5884 12.0361 22.0091 12.843 21.5155C14.458 20.5322 16.6543 19.832 19.0671 19.832ZM29.3553 20.8737C29.8274 21.346 30.0927 21.9866 30.0927 22.6544C30.0927 23.3223 29.8274 23.9628 29.3553 24.4351L25.9118 27.8786C25.6807 28.1096 25.3809 28.2595 25.0574 28.3057L22.7312 28.6382C22.5762 28.6605 22.4181 28.6463 22.2695 28.5968C22.1209 28.5473 21.9859 28.4639 21.8752 28.3531C21.7645 28.2423 21.6811 28.1072 21.6318 27.9585C21.5824 27.8099 21.5684 27.6518 21.5908 27.4968L21.9232 25.1715C21.9693 24.8477 22.1192 24.5476 22.3504 24.3162L25.7939 20.8727C26.2662 20.4006 26.9067 20.1353 27.5746 20.1353C28.2424 20.1353 28.8829 20.4006 29.3553 20.8727V20.8737Z" fill="url(#paint0_linear_505_3579)"/>
<defs>
<linearGradient id="paint0_linear_505_3579" x1="30.0927" y1="20.2887" x2="9.99832" y2="20.348" gradientUnits="userSpaceOnUse">
<stop stop-color="#E20512"/>
<stop offset="1" stop-color="#AD010B"/>
</linearGradient>
</defs>
</svg>
