<svg width="24" height="24" viewBox="0 0 24 24" fill="none" xmlns="http://www.w3.org/2000/svg">
<path d="M15.8911 3.04831C16.5621 2.37718 17.4722 2.00009 18.4213 2C19.3703 1.99991 20.2805 2.37682 20.9516 3.04781C21.6227 3.71881 21.9998 4.62893 21.9999 5.57796C22 6.52699 21.6231 7.43718 20.9521 8.10831L20.0601 9.00131L15.0001 3.94031L15.8911 3.04831ZM13.9401 5.00131L3.94011 15.0003C3.53365 15.4064 3.24802 15.9174 3.11511 16.4763L2.02011 21.0783C1.99046 21.203 1.99324 21.3331 2.02819 21.4564C2.06313 21.5797 2.12907 21.6919 2.21972 21.7825C2.31037 21.873 2.42271 21.9389 2.54601 21.9737C2.66932 22.0085 2.79949 22.0111 2.92411 21.9813L7.52511 20.8853C8.08441 20.7526 8.59579 20.4669 9.00211 20.0603L19.0001 10.0613L13.9401 5.00131Z" fill="#F7FCFA"/>
</svg>
