<svg width="20" height="20" viewBox="0 0 20 20" fill="none" xmlns="http://www.w3.org/2000/svg">
<path d="M9.99979 4C16.4998 4 19.5006 10.0001 19.5006 10.0001C19.5006 10.0001 16.4998 16.0002 9.99979 16.0002C3.4998 16.0002 0.499023 10.0001 0.499023 10.0001C0.499023 10.0001 3.4998 4 9.99979 4Z" stroke="#E20512" stroke-width="0.929" stroke-linejoin="round"/>
<path d="M12.8356 10.0005C12.8443 10.3898 12.7752 10.7769 12.6322 11.1391C12.4893 11.5013 12.2754 11.8313 12.0031 12.1097C11.7309 12.3881 11.4058 12.6093 11.0468 12.7603C10.6879 12.9113 10.3025 12.9891 9.91306 12.9891C9.52366 12.9891 9.13819 12.9113 8.77927 12.7603C8.42036 12.6093 8.09523 12.3881 7.82298 12.1097C7.55073 11.8313 7.33685 11.5013 7.19389 11.1391C7.05093 10.7769 6.98177 10.3898 6.99048 10.0005C6.99048 9.22515 7.29847 8.48159 7.8467 7.93337C8.39492 7.38514 9.13848 7.07715 9.91379 7.07715C10.6891 7.07715 11.4327 7.38514 11.9809 7.93337C12.5291 8.48159 12.8371 9.22515 12.8371 10.0005H12.8356Z" stroke="#E20512" stroke-width="0.929" stroke-linejoin="round"/>
</svg>
