<svg width="28" height="28" viewBox="0 0 28 28" fill="none" xmlns="http://www.w3.org/2000/svg">
<path d="M4.65 3.4488C3.3825 3.5736 2.5297 3.8557 1.8927 4.4927C0.75 5.6341 0.75 7.4736 0.75 11.15V16.35C0.75 20.0264 0.75 21.8659 1.8927 23.0073C2.5297 23.6443 3.3825 23.9264 4.65 24.0512M22.85 3.4488C24.1175 3.5736 24.9703 3.8557 25.6073 4.4927C26.75 5.6341 26.75 7.4736 26.75 11.15V16.35C26.75 20.0264 26.75 21.8659 25.6073 23.0073C24.9703 23.6443 24.1175 23.9264 22.85 24.0512M4.65 8.55C4.65 4.8736 4.65 3.0341 5.7927 1.8927C6.9341 0.75 8.7736 0.75 12.45 0.75H15.05C18.7264 0.75 20.5659 0.75 21.7073 1.8927C22.85 3.0341 22.85 4.8736 22.85 8.55V18.95C22.85 22.6264 22.85 24.4659 21.7073 25.6073C20.5659 26.75 18.7264 26.75 15.05 26.75H12.45C8.7736 26.75 6.9341 26.75 5.7927 25.6073C4.65 24.4659 4.65 22.6264 4.65 18.95V8.55Z" stroke="#E20512" stroke-width="1.5"/>
<path d="M9.8501 15.0501H17.6501M9.8501 9.8501H17.6501M9.8501 20.2501H13.7501" stroke="#E20512" stroke-width="1.5" stroke-linecap="round"/>
</svg>
