<svg width="24" height="28" viewBox="0 0 24 28" fill="none" xmlns="http://www.w3.org/2000/svg">
<path d="M4.05712 3.97728C6.18207 1.89483 9.04298 0.735118 12.0182 0.750144C14.9934 0.765171 17.8424 1.95373 19.9462 4.05753C22.05 6.16133 23.2386 9.01039 23.2536 11.9856C23.2686 14.9608 22.1089 17.8217 20.0265 19.9466L14.0579 25.9152C13.5232 26.4498 12.798 26.7501 12.0418 26.7501C11.2856 26.7501 10.5604 26.4498 10.0257 25.9152L4.05712 19.9466C1.9396 17.8289 0.75 14.9567 0.75 11.962C0.75 8.96717 1.9396 6.09502 4.05712 3.97728Z" stroke="#E20512" stroke-width="1.5" stroke-linejoin="round"/>
<path d="M12.0417 16.2396C14.4041 16.2396 16.3192 14.3245 16.3192 11.9621C16.3192 9.59967 14.4041 7.68457 12.0417 7.68457C9.67926 7.68457 7.76416 9.59967 7.76416 11.9621C7.76416 14.3245 9.67926 16.2396 12.0417 16.2396Z" stroke="#E20512" stroke-width="1.5" stroke-linecap="round" stroke-linejoin="round"/>
</svg>
