<svg width="26" height="26" viewBox="0 0 26 26" fill="none" xmlns="http://www.w3.org/2000/svg">
<g clip-path="url(#clip0_642_3857)">
<path fill-rule="evenodd" clip-rule="evenodd" d="M0.931468 6.66243C0.652662 6.79356 0.416932 7.00133 0.251817 7.26146C0.0867027 7.52158 -0.000976563 7.82333 -0.000976562 8.13143C-0.000976563 8.43954 0.0867027 8.74128 0.251817 9.0014C0.416932 9.26153 0.652662 9.4693 0.931468 9.60043L3.25522 10.6973V17.0673C3.25522 18.2731 3.64684 19.6186 4.78922 20.4473C6.22897 21.4873 8.85172 22.7548 13.0117 22.7548C17.1717 22.7548 19.788 21.4792 21.2342 20.4473C22.3766 19.6218 22.7682 18.2861 22.7682 17.0673V10.6973L24.3932 9.92868V17.0624C24.3932 17.2779 24.4788 17.4846 24.6312 17.637C24.7836 17.7893 24.9902 17.8749 25.2057 17.8749C25.4212 17.8749 25.6279 17.7893 25.7802 17.637C25.9326 17.4846 26.0182 17.2779 26.0182 17.0624V8.12493C26.0183 7.81719 25.931 7.51575 25.7664 7.25569C25.6019 6.99563 25.3668 6.78765 25.0887 6.65593L15.7937 2.26843C14.925 1.85761 13.9759 1.64453 13.015 1.64453C12.054 1.64453 11.105 1.85761 10.2362 2.26843L0.941218 6.65593L0.931468 6.66243ZM4.88022 17.0624V11.4562L10.2265 13.9912C11.0952 14.402 12.0442 14.6151 13.0052 14.6151C13.9662 14.6151 14.9152 14.402 15.784 13.9912L21.1302 11.4562V17.0624C21.1302 17.9659 20.8377 18.7037 20.269 19.1099C19.0925 19.9598 16.8077 21.1249 13.0052 21.1249C9.20272 21.1249 6.91147 19.9679 5.74147 19.1099C5.17434 18.7004 4.88022 17.9578 4.88022 17.0624ZM10.9252 3.73743C11.5754 3.42946 12.2858 3.2697 13.0052 3.2697C13.7246 3.2697 14.4351 3.42946 15.0852 3.73743L24.3802 8.12493L15.0852 12.5124C14.4351 12.8204 13.7246 12.9802 13.0052 12.9802C12.2858 12.9802 11.5754 12.8204 10.9252 12.5124L1.63022 8.12493L10.9252 3.73743Z" fill="#E20512"/>
</g>
<defs>
<clipPath id="clip0_642_3857">
<rect width="26" height="26" fill="white"/>
</clipPath>
</defs>
</svg>
