<svg width="26" height="26" viewBox="0 0 26 26" fill="none" xmlns="http://www.w3.org/2000/svg">
<path d="M11.8659 12.054C10.866 12.054 9.88859 11.7575 9.05721 11.202C8.22583 10.6465 7.57785 9.85689 7.1952 8.93311C6.81256 8.00932 6.71244 6.99282 6.90751 6.01214C7.10258 5.03146 7.58408 4.13064 8.29111 3.42361C8.99814 2.71658 9.89896 2.23508 10.8796 2.04001C11.8603 1.84494 12.8768 1.94506 13.8006 2.3277C14.7244 2.71035 15.514 3.35833 16.0695 4.18971C16.625 5.02109 16.9215 5.99853 16.9215 6.99843C16.9215 8.33925 16.3888 9.62515 15.4407 10.5732C14.4926 11.5213 13.2067 12.054 11.8659 12.054ZM11.8659 3.4451C11.1517 3.4451 10.4535 3.65688 9.8597 4.05368C9.26586 4.45047 8.80301 5.01445 8.5297 5.67429C8.25638 6.33414 8.18487 7.06021 8.3242 7.7607C8.46354 8.46119 8.80746 9.10463 9.31249 9.60965C9.81751 10.1147 10.4609 10.4586 11.1614 10.5979C11.8619 10.7373 12.588 10.6658 13.2478 10.3924C13.9077 10.1191 14.4717 9.65628 14.8685 9.06243C15.2653 8.46859 15.477 7.77042 15.477 7.05621C15.477 6.58199 15.3836 6.11241 15.2022 5.67429C15.0207 5.23617 14.7547 4.83809 14.4194 4.50277C14.084 4.16744 13.686 3.90145 13.2478 3.71998C12.8097 3.5385 12.3401 3.4451 11.8659 3.4451ZM15.8887 12.9279C11.9804 12.0479 7.89142 12.4715 4.24648 14.134C3.74518 14.3734 3.32223 14.7504 3.02687 15.2209C2.7315 15.6915 2.57589 16.2362 2.57815 16.7918V21.089C2.57815 21.1838 2.59683 21.2777 2.63313 21.3654C2.66942 21.453 2.72262 21.5326 2.78968 21.5997C2.85675 21.6667 2.93636 21.7199 3.02399 21.7562C3.11161 21.7925 3.20553 21.8112 3.30037 21.8112C3.39522 21.8112 3.48913 21.7925 3.57675 21.7562C3.66438 21.7199 3.744 21.6667 3.81106 21.5997C3.87812 21.5326 3.93132 21.453 3.96762 21.3654C4.00391 21.2777 4.02259 21.1838 4.02259 21.089V16.7918C4.01631 16.5106 4.09223 16.2337 4.24105 15.9951C4.38987 15.7565 4.60512 15.5665 4.86037 15.4484C7.05605 14.4344 9.44741 13.9142 11.8659 13.9245C13.221 13.9229 14.5715 14.083 15.8887 14.4012V12.9279ZM15.9898 19.7962H20.4243V20.8073H15.9898V19.7962Z" fill="#E20512"/>
<path d="M23.9562 15.5061H20.2223V16.9505H23.234V22.9955H13.0001V16.9505H17.5501V17.2538C17.5501 17.4454 17.6262 17.6291 17.7616 17.7645C17.8971 17.9 18.0808 17.9761 18.2723 17.9761C18.4639 17.9761 18.6476 17.9 18.783 17.7645C18.9185 17.6291 18.9946 17.4454 18.9946 17.2538V14.4444C18.9946 14.2528 18.9185 14.0691 18.783 13.9337C18.6476 13.7983 18.4639 13.7222 18.2723 13.7222C18.0808 13.7222 17.8971 13.7983 17.7616 13.9337C17.6262 14.0691 17.5501 14.2528 17.5501 14.4444V15.5061H12.2779C12.0863 15.5061 11.9026 15.5821 11.7672 15.7176C11.6318 15.853 11.5557 16.0367 11.5557 16.2283V23.7177C11.5557 23.9093 11.6318 24.093 11.7672 24.2284C11.9026 24.3639 12.0863 24.4399 12.2779 24.4399H23.9562C24.1478 24.4399 24.3315 24.3639 24.4669 24.2284C24.6024 24.093 24.6784 23.9093 24.6784 23.7177V16.2283C24.6784 16.0367 24.6024 15.853 24.4669 15.7176C24.3315 15.5821 24.1478 15.5061 23.9562 15.5061Z" fill="#E20512"/>
</svg>
