<svg width="26" height="26" viewBox="0 0 26 26" fill="none" xmlns="http://www.w3.org/2000/svg">
<path d="M21.2767 13.66C21.4827 13.66 21.6551 13.5914 21.7938 13.4543C21.9324 13.3171 22.0013 13.1476 22.0003 12.9457C21.9994 12.7438 21.93 12.5738 21.7923 12.4357C21.6546 12.2976 21.4832 12.2295 21.2781 12.2314H16.8336C16.6284 12.2314 16.4566 12.2995 16.3179 12.4357C16.1802 12.5719 16.1113 12.7419 16.1113 12.9457C16.1113 13.1495 16.1802 13.319 16.3179 13.4543C16.4556 13.5895 16.6275 13.6581 16.8336 13.66H21.2767ZM21.2767 9.70286C21.4827 9.70286 21.6551 9.63476 21.7938 9.49857C21.9324 9.36238 22.0013 9.19238 22.0003 8.98857C21.9994 8.78476 21.93 8.61524 21.7923 8.48C21.6546 8.34476 21.4832 8.27619 21.2781 8.27429H16.8336C16.6284 8.27429 16.4566 8.34238 16.3179 8.47857C16.1802 8.61571 16.1113 8.78571 16.1113 8.98857C16.1113 9.19143 16.1802 9.36143 16.3179 9.49857C16.4556 9.63571 16.6275 9.70381 16.8336 9.70286H21.2767ZM8.77789 14.8686C7.98537 14.8686 7.31419 14.9229 6.76433 15.0314C6.21352 15.14 5.72 15.3152 5.28378 15.5571C4.90822 15.7571 4.62463 15.9757 4.433 16.2129C4.24137 16.45 4.14604 16.7033 4.147 16.9729C4.147 17.1852 4.23222 17.3638 4.40267 17.5086C4.57311 17.6533 4.78689 17.7257 5.044 17.7257H12.5118C12.7689 17.7257 12.9827 17.6471 13.1531 17.49C13.3236 17.3329 13.4088 17.1457 13.4088 16.9286C13.4088 16.6886 13.3178 16.4557 13.1358 16.23C12.9538 16.0043 12.6659 15.7805 12.272 15.5586C11.8348 15.3157 11.3413 15.14 10.7914 15.0314C10.2416 14.9229 9.57041 14.8686 8.77789 14.8686ZM8.77789 12.56C9.38744 12.56 9.9007 12.3538 10.3177 11.9414C10.7356 11.5281 10.9446 11.02 10.9446 10.4171C10.9446 9.81429 10.7356 9.30667 10.3177 8.89429C9.89974 8.4819 9.38648 8.27524 8.77789 8.27429C8.1693 8.27333 7.65604 8.48 7.23811 8.89429C6.82018 9.30857 6.61122 9.81619 6.61122 10.4171C6.61122 11.0181 6.82018 11.5262 7.23811 11.9414C7.65604 12.3567 8.1693 12.5629 8.77789 12.56ZM2.33422 23C1.66882 23 1.11367 22.78 0.668778 22.34C0.223889 21.9 0.000962963 21.3505 0 20.6914V5.30857C0 4.65048 0.222926 4.10143 0.668778 3.66143C1.11463 3.22143 1.6693 3.00095 2.33278 3H23.6672C24.3317 3 24.8863 3.22048 25.3312 3.66143C25.7761 4.10238 25.999 4.65143 26 5.30857V20.6929C26 21.35 25.7771 21.899 25.3312 22.34C24.8854 22.781 24.3307 23.0009 23.6672 23H2.33422ZM2.33422 21.5714H23.6672C23.8887 21.5714 24.0924 21.48 24.2782 21.2971C24.4641 21.1143 24.5565 20.9124 24.5556 20.6914V5.30857C24.5556 5.08857 24.4631 4.88667 24.2782 4.70286C24.0933 4.51905 23.8897 4.42762 23.6672 4.42857H2.33278C2.1113 4.42857 1.90763 4.52 1.72178 4.70286C1.53593 4.88571 1.44348 5.08762 1.44444 5.30857V20.6929C1.44444 20.9119 1.53689 21.1133 1.72178 21.2971C1.90667 21.481 2.11033 21.5724 2.33278 21.5714" fill="#E20512"/>
</svg>
