<svg width="26" height="26" viewBox="0 0 26 26" fill="none" xmlns="http://www.w3.org/2000/svg">
<path d="M17.8499 13.5718C20.072 13.5718 21.8827 11.5925 21.8827 9.18427C21.8827 6.80341 20.0813 4.91748 17.8499 4.91748C15.6371 4.91748 13.8167 6.83127 13.8167 9.20284C13.826 11.6018 15.6371 13.5718 17.8499 13.5718ZM7.09521 13.777C9.01829 13.777 10.5959 12.0498 10.5959 9.93084C10.5959 7.85827 9.03686 6.1873 7.09521 6.1873C5.17214 6.1873 3.58521 7.88659 3.5945 9.94941C3.60379 12.0596 5.17214 13.777 7.09521 13.777ZM17.8499 12.1622C16.4868 12.1622 15.3196 10.8552 15.3196 9.20284C15.3196 7.57784 16.4682 6.32752 17.8499 6.32752C19.2409 6.32752 20.3798 7.55973 20.3798 9.1838C20.3798 10.8367 19.2316 12.1622 17.8499 12.1622ZM7.09521 12.386C5.95632 12.386 4.9855 11.294 4.9855 9.94941C4.9855 8.63316 5.94657 7.5783 7.09521 7.5783C8.27125 7.5783 9.21421 8.61459 9.21421 9.93084C9.21421 11.294 8.24339 12.386 7.09521 12.386ZM1.9045 22.3379H9.23325C8.78475 22.0858 8.43932 21.5254 8.50479 20.9562H1.67143C1.48479 20.9562 1.39146 20.8819 1.39146 20.7041C1.39146 18.3892 4.03325 16.2233 7.08639 16.2233C8.26243 16.2233 9.31728 16.5033 10.2231 17.0353C10.5236 16.6549 10.8791 16.3215 11.278 16.0459C10.0736 15.252 8.62689 14.8416 7.08639 14.8416C3.17432 14.8416 0 17.6793 0 20.7882C0 21.8244 0.634679 22.3379 1.9045 22.3379ZM11.9869 22.3379H23.7129C25.2622 22.3379 26 21.8713 26 20.8443C26 18.3985 22.9097 14.8597 17.8499 14.8597C12.7804 14.8597 9.69057 18.3985 9.69057 20.8443C9.69057 21.8713 10.4279 22.3379 11.9869 22.3379ZM11.5389 20.9284C11.2961 20.9284 11.1935 20.8634 11.1935 20.667C11.1935 19.1358 13.5646 16.2702 17.8499 16.2702C22.126 16.2702 24.4966 19.1358 24.4966 20.667C24.4966 20.8629 24.4038 20.9284 24.1605 20.9284H11.5389Z" fill="#E20512"/>
</svg>
