<svg width="26" height="26" viewBox="0 0 26 26" fill="none" xmlns="http://www.w3.org/2000/svg">
<path d="M17.0625 13.4129V22.1406C17.0625 23.3746 16.0951 24.375 14.8814 24.375H5.43359C4.21738 24.375 3.25 23.3746 3.25 22.1406V8.73438C3.25346 8.14285 3.48998 7.57654 3.90826 7.15826C4.32654 6.73998 4.89285 6.50346 5.48438 6.5H10.2639C10.4293 6.50025 10.5931 6.53343 10.7456 6.5976C10.898 6.66176 11.0362 6.75564 11.1521 6.87375L16.6948 12.5105C16.9307 12.7516 17.0626 13.0756 17.0625 13.4129Z" stroke="#E20512" stroke-linejoin="round"/>
<path d="M10.1562 6.5V11.9844C10.1607 12.3601 10.312 12.7191 10.5777 12.9848C10.8434 13.2505 11.2024 13.4018 11.5781 13.4062H17.0625" stroke="#E20512" stroke-linecap="round" stroke-linejoin="round"/>
<path d="M8.9375 6.5V3.85938C8.94096 3.26785 9.17748 2.70154 9.59576 2.28326C10.014 1.86498 10.5804 1.62846 11.1719 1.625H15.9453C16.1117 1.62523 16.2763 1.65837 16.4298 1.72252C16.5833 1.78666 16.7225 1.88054 16.8396 1.99875L22.3823 7.63547C22.618 7.87407 22.7501 8.19592 22.75 8.53125V17.2656C22.75 18.4996 21.7826 19.5 20.5689 19.5H17.4688" stroke="#E20512" stroke-linejoin="round"/>
<path d="M15.8438 1.625V7.10938C15.8482 7.48509 15.9995 7.84415 16.2652 8.10984C16.5309 8.37553 16.8899 8.52677 17.2656 8.53125H22.75" stroke="#E20512" stroke-linecap="round" stroke-linejoin="round"/>
</svg>
