<svg width="28" height="28" viewBox="0 0 28 28" fill="none" xmlns="http://www.w3.org/2000/svg">
<path d="M16.6786 14.0003C16.6786 15.4806 15.4789 16.6804 13.9986 16.6804C12.5184 16.6804 11.3186 15.4806 11.3186 14.0003C11.3186 12.5201 12.5184 11.3203 13.9986 11.3203C15.4789 11.3203 16.6786 12.5201 16.6786 14.0003Z" fill="#EFF0F7"/>
<path d="M20.2659 9.25849C20.1371 8.90956 19.9317 8.59285 19.6647 8.33383C19.4057 8.06677 19.0889 7.86144 18.74 7.73261C18.4568 7.62256 18.0314 7.49104 17.2477 7.45615C16.3995 7.41723 16.1459 7.40918 13.9986 7.40918C11.8514 7.40918 11.5978 7.41723 10.7496 7.45615C9.96586 7.49239 9.54044 7.62256 9.25727 7.73261C8.90834 7.86144 8.59162 8.06677 8.33261 8.33383C8.06555 8.59285 7.86022 8.90956 7.73139 9.25849C7.62134 9.54166 7.48982 9.96708 7.45493 10.7508C7.41601 11.599 7.40796 11.8526 7.40796 13.9999C7.40796 16.1458 7.41601 16.4007 7.45493 17.2489C7.49116 18.0326 7.62134 18.4581 7.73139 18.7412C7.86022 19.0902 8.06555 19.4069 8.33261 19.6659C8.59162 19.933 8.90834 20.1383 9.25727 20.2671C9.54044 20.3772 9.96586 20.5087 10.7496 20.5436C11.5978 20.5825 11.8514 20.5905 13.9973 20.5905C16.1445 20.5905 16.3982 20.5825 17.2463 20.5436C18.0301 20.5073 18.4555 20.3772 18.7387 20.2671C19.4392 19.996 19.9935 19.4431 20.2646 18.7412C20.3746 18.4581 20.5061 18.0326 20.541 17.2489C20.5799 16.4007 20.588 16.1471 20.588 13.9999C20.588 11.8526 20.5799 11.599 20.541 10.7508C20.5075 9.96708 20.3759 9.54166 20.2659 9.25849ZM14 18.1279C11.7199 18.1279 9.87192 16.28 9.87192 13.9999C9.87192 11.7198 11.7199 9.87179 14 9.87179C16.2801 9.87179 18.1281 11.7198 18.1281 13.9999C18.1281 16.28 16.2787 18.1279 14 18.1279ZM18.2904 10.673C17.7577 10.673 17.3255 10.2409 17.3255 9.70807C17.3255 9.17528 17.7577 8.74315 18.2904 8.74315C18.8232 8.74315 19.2554 9.17528 19.2554 9.70807C19.2554 10.2409 18.8232 10.673 18.2904 10.673Z" fill="#EFF0F7"/>
<path d="M14 0C6.2686 0 0 6.2686 0 14C0 21.7314 6.2686 28 14 28C21.7314 28 28 21.7314 28 14C28 6.2686 21.7301 0 14 0ZM21.9904 17.3135C21.9515 18.1697 21.816 18.7535 21.6173 19.2648C21.2 20.3451 20.3464 21.1986 19.2661 21.616C18.7548 21.8146 18.171 21.9502 17.3148 21.9891C16.4572 22.028 16.1835 22.0374 14 22.0374C11.8165 22.0374 11.5428 22.028 10.6852 21.9891C9.82899 21.9502 9.24521 21.8146 8.7339 21.616C8.19709 21.4147 7.71127 21.098 7.31001 20.6887C6.90069 20.2874 6.58531 19.8016 6.38267 19.2648C6.18405 18.7535 6.0485 18.1697 6.00959 17.3135C5.97067 16.4559 5.96127 16.1821 5.96127 13.9987C5.96127 11.8152 5.97067 11.5414 6.00959 10.6839C6.0485 9.82765 6.18405 9.24387 6.38267 8.73255C6.58397 8.19574 6.90069 7.70993 7.31001 7.30867C7.71127 6.89935 8.19709 6.58263 8.7339 6.38133C9.24521 6.18271 9.82899 6.04716 10.6852 6.00824C11.5428 5.96933 11.8165 5.95993 14 5.95993C16.1835 5.95993 16.4572 5.96933 17.3148 6.00824C18.171 6.04716 18.7548 6.18271 19.2661 6.38133C19.8029 6.58263 20.2887 6.89935 20.69 7.30867C21.0993 7.70993 21.416 8.19574 21.6173 8.73255C21.816 9.24387 21.9515 9.82765 21.9918 10.6839C22.0307 11.5414 22.0401 11.8152 22.0401 13.9987C22.0401 16.1821 22.0293 16.4572 21.9904 17.3135Z" fill="#EFF0F7"/>
</svg>
