<svg width="28" height="28" viewBox="0 0 28 28" fill="none" xmlns="http://www.w3.org/2000/svg">
<g clip-path="url(#clip0_60_315)">
<path d="M14.0009 0C6.26711 0 0 6.26711 0 14.0009C0 21.7347 6.26711 28.0018 14.0009 28.0018C21.7347 28.0018 28.0018 21.7347 28.0018 14.0009C28.0018 6.26711 21.7329 0 14.0009 0ZM9.92838 21.3689H6.8749V11.5297H9.92838V21.3689ZM8.39982 10.1868C7.41717 10.1904 6.61831 9.39884 6.61468 8.4162C6.61104 7.43355 7.40261 6.63469 8.38526 6.63105C9.36609 6.62741 10.1649 7.41899 10.1704 8.39982C10.1722 9.38065 9.38065 10.1795 8.39982 10.1868ZM21.3689 21.3689H18.3173V16.5795C18.3173 15.4367 18.2954 13.9736 16.7287 13.9736C15.1619 13.9736 14.8853 15.2147 14.8853 16.4957V21.3689H11.8445V11.5297H14.7761V12.8709H14.818C15.2256 12.0975 16.221 11.2804 17.7077 11.2804C20.7994 11.2804 21.3671 13.3185 21.3671 15.9626V21.3689H21.3689Z" fill="#EFF0F7"/>
</g>
<defs>
<clipPath id="clip0_60_315">
<rect width="28" height="28" fill="white"/>
</clipPath>
</defs>
</svg>
