<svg width="25" height="24" viewBox="0 0 25 24" fill="none" xmlns="http://www.w3.org/2000/svg">
<path fill-rule="evenodd" clip-rule="evenodd" d="M5.33443 2.73594C8.45573 2.51655 11.5886 2.51655 14.7099 2.73594C15.2156 2.77194 15.6579 2.94852 16.0024 3.2108C16.2292 3.37445 16.5109 3.44299 16.7874 3.40178C17.064 3.36058 17.3135 3.21289 17.4826 2.99025C17.6518 2.76761 17.7272 2.48767 17.6928 2.21018C17.6584 1.93269 17.5169 1.67966 17.2984 1.50509C16.6196 0.990802 15.7796 0.665088 14.8624 0.598231C11.6402 0.370251 8.40583 0.370251 5.18358 0.598231C3.00301 0.754231 1.21843 2.40337 1.11043 4.54795C0.988492 7.03007 0.927902 9.51483 0.928719 11.9999C0.928719 14.5559 0.992148 17.0502 1.11043 19.4519C1.21843 21.5965 3.00301 23.2457 5.18358 23.4017C8.40583 23.6296 11.6402 23.6296 14.8624 23.4017C15.7452 23.3421 16.5916 23.027 17.2984 22.4948C17.4143 22.4112 17.5123 22.3052 17.5866 22.1831C17.6609 22.061 17.71 21.9253 17.7311 21.784C17.7521 21.6426 17.7447 21.4985 17.7092 21.36C17.6737 21.2216 17.6109 21.0917 17.5245 20.9779C17.438 20.8641 17.3297 20.7687 17.2058 20.6974C17.0819 20.6262 16.945 20.5804 16.8032 20.5628C16.6614 20.5452 16.5175 20.5561 16.38 20.595C16.2424 20.6339 16.1141 20.6999 16.0024 20.7891C15.6579 21.0497 15.2139 21.2279 14.7099 21.2639C11.5891 21.4833 8.45687 21.4833 5.33615 21.2639C4.11386 21.1782 3.29786 20.2902 3.25158 19.3457C3.13056 16.899 3.07054 14.4496 3.07158 11.9999C3.07158 9.47995 3.13329 7.01995 3.25158 4.65423C3.29786 3.70966 4.11386 2.82337 5.33615 2.73594M8.319 10.9285H17.2196V7.22223C17.2198 7.0393 17.2669 6.85948 17.3563 6.69989C17.4457 6.5403 17.5744 6.40626 17.7303 6.31053C17.8862 6.2148 18.064 6.16058 18.2468 6.15303C18.4295 6.14547 18.6112 6.18484 18.7744 6.26737C20.8624 7.32509 22.9059 9.39595 23.9516 11.5062C24.0318 11.6588 24.0737 11.8285 24.0737 12.0008C24.0737 12.1731 24.0318 12.3429 23.9516 12.4954C22.9059 14.6039 20.8607 16.6748 18.7744 17.7325C18.6112 17.8151 18.4295 17.8544 18.2468 17.8469C18.064 17.8393 17.8862 17.7851 17.7303 17.6894C17.5744 17.5936 17.4457 17.4596 17.3563 17.3C17.2669 17.1404 17.2198 16.9606 17.2196 16.7777V13.0714H8.31729C8.03313 13.0714 7.76061 12.9585 7.55968 12.7576C7.35874 12.5566 7.24586 12.2841 7.24586 11.9999C7.24586 11.7158 7.35874 11.4433 7.55968 11.2423C7.76061 11.0414 8.03484 10.9285 8.319 10.9285Z" fill="#E60202"/>
</svg>
