<svg width="32" height="32" viewBox="0 0 32 32" fill="none" xmlns="http://www.w3.org/2000/svg">
<path d="M26.6667 24C27.0065 24.0004 27.3334 24.1305 27.5805 24.3638C27.8276 24.5971 27.9763 24.9159 27.9962 25.2552C28.0161 25.5945 27.9058 25.9285 27.6876 26.1891C27.4695 26.4497 27.1601 26.6172 26.8227 26.6573L26.6667 26.6667H5.33333C4.99349 26.6663 4.66662 26.5362 4.41951 26.3029C4.17239 26.0696 4.02369 25.7507 4.00377 25.4115C3.98385 25.0722 4.09423 24.7382 4.31235 24.4776C4.53047 24.217 4.83987 24.0495 5.17733 24.0093L5.33333 24H26.6667ZM26.6667 14.6667C27.0203 14.6667 27.3594 14.8071 27.6095 15.0572C27.8595 15.3072 28 15.6464 28 16C28 16.3536 27.8595 16.6928 27.6095 16.9428C27.3594 17.1929 27.0203 17.3333 26.6667 17.3333H5.33333C4.97971 17.3333 4.64057 17.1929 4.39052 16.9428C4.14048 16.6928 4 16.3536 4 16C4 15.6464 4.14048 15.3072 4.39052 15.0572C4.64057 14.8071 4.97971 14.6667 5.33333 14.6667H26.6667ZM26.6667 5.33334C27.0203 5.33334 27.3594 5.47381 27.6095 5.72386C27.8595 5.97391 28 6.31305 28 6.66667C28 7.02029 27.8595 7.35943 27.6095 7.60948C27.3594 7.85953 27.0203 8 26.6667 8H5.33333C4.97971 8 4.64057 7.85953 4.39052 7.60948C4.14048 7.35943 4 7.02029 4 6.66667C4 6.31305 4.14048 5.97391 4.39052 5.72386C4.64057 5.47381 4.97971 5.33334 5.33333 5.33334H26.6667Z" fill="url(#paint0_linear_777_2988)"/>
<defs>
<linearGradient id="paint0_linear_777_2988" x1="28" y1="17.5556" x2="3.99805" y2="17.6354" gradientUnits="userSpaceOnUse">
<stop stop-color="#E20512"/>
<stop offset="1" stop-color="#AD010B"/>
</linearGradient>
</defs>
</svg>
