<svg width="24" height="24" viewBox="0 0 24 24" fill="none" xmlns="http://www.w3.org/2000/svg">
<path d="M11.8802 14.5089H11.9327C13.0577 14.5389 13.9577 15.4539 13.9577 16.5789C13.9577 17.5389 13.3052 18.3414 12.4202 18.5814V19.4214C12.4202 19.7214 12.1802 19.9614 11.8802 19.9614C11.5802 19.9614 11.3402 19.7214 11.3402 19.4214V18.5814C10.8996 18.4628 10.5103 18.2024 10.2324 17.8405C9.95452 17.4786 9.80352 17.0352 9.80273 16.5789C9.80273 16.2789 10.0427 16.0389 10.3427 16.0389C10.6427 16.0389 10.8827 16.2789 10.8827 16.5789C10.8827 17.1339 11.3252 17.5764 11.8727 17.5764C12.4202 17.5764 12.8702 17.1264 12.8702 16.5789C12.8702 16.0314 12.4202 15.5814 11.8727 15.5814H11.8202C11.2807 15.5668 10.7681 15.3423 10.3914 14.9558C10.0147 14.5693 9.80351 14.0511 9.80273 13.5114C9.80273 12.5514 10.4552 11.7489 11.3402 11.5089V10.6689C11.3402 10.3689 11.5802 10.1289 11.8802 10.1289C12.1802 10.1289 12.4202 10.3689 12.4202 10.6689V11.5089C13.3052 11.7489 13.9577 12.5514 13.9577 13.5114C13.9577 13.8114 13.7177 14.0514 13.4177 14.0514C13.1177 14.0514 12.8777 13.8114 12.8777 13.5114C12.8777 12.9639 12.4277 12.5139 11.8802 12.5139C11.3327 12.5139 10.8827 12.9639 10.8827 13.5114C10.8827 14.0589 11.3327 14.5089 11.8802 14.5089Z" fill="#D0D0D0"/>
<path d="M7.899 3.82514L9.9885 6.27014L9.76275 6.52214C5.46225 7.48664 2.25 11.3274 2.25 15.9189C2.25 19.9554 5.526 23.2314 9.5625 23.2314H14.19C18.2265 23.2314 21.5025 19.9561 21.5025 15.9196C21.51 11.3274 18.2978 7.48664 13.9973 6.52214C14.0149 6.36365 13.9863 6.20343 13.9148 6.06089L15.6923 4.02614L15.807 3.84914C15.941 3.55689 15.9753 3.22871 15.9046 2.91507C15.8338 2.60144 15.6621 2.31972 15.4156 2.11324C15.1692 1.90677 14.8617 1.78697 14.5406 1.77227C14.2194 1.75757 13.9023 1.84879 13.638 2.03189L13.0058 1.28189C12.8639 1.12318 12.6902 0.996127 12.496 0.909026C12.3018 0.821924 12.0914 0.776723 11.8786 0.776369C11.6657 0.776015 11.4552 0.820516 11.2607 0.906972C11.0662 0.993428 10.8921 1.1199 10.7498 1.27814L10.0875 2.01764C9.82391 1.83073 9.50608 1.73587 9.18317 1.74775C8.86025 1.75963 8.55025 1.87757 8.3011 2.08334C8.05196 2.28912 7.87755 2.57125 7.80487 2.8861C7.73218 3.20095 7.76527 3.53098 7.899 3.82514ZM10.7483 4.86389L9.47625 3.39389C9.77182 3.53602 10.1061 3.57632 10.427 3.50848C10.7479 3.44064 11.0373 3.26849 11.25 3.01889L11.85 2.24039L12.516 3.02939C12.7237 3.27087 13.0038 3.4388 13.3146 3.50813C13.6255 3.57746 13.9504 3.54449 14.241 3.41414L12.975 4.86389H10.7483ZM3.75 15.9189C3.75 11.4279 7.389 7.78889 11.88 7.78889C16.371 7.78889 20.01 11.4279 20.0025 15.9174V15.9189C20.0019 17.4603 19.3893 18.9384 18.2994 20.0283C17.2095 21.1182 15.7314 21.7308 14.19 21.7314H9.5625C8.02111 21.7308 6.54303 21.1182 5.4531 20.0283C4.36317 18.9384 3.7506 17.4603 3.75 15.9189Z" fill="#D0D0D0"/>
</svg>
