<svg width="45" height="34" viewBox="0 0 45 34" fill="none" xmlns="http://www.w3.org/2000/svg">
<path d="M8.12683 33.2397V31.0287C8.14316 30.8409 8.1165 30.652 8.04871 30.4751C7.98091 30.2982 7.87362 30.1375 7.73429 30.0043C7.59495 29.8711 7.42694 29.7685 7.24192 29.7036C7.0569 29.6388 6.85934 29.6133 6.66297 29.6289C6.40685 29.6189 6.15226 29.6712 5.92299 29.7808C5.69372 29.8904 5.49726 30.0538 5.35196 30.2558C5.22563 30.0543 5.0443 29.8894 4.82743 29.779C4.61056 29.6686 4.36634 29.6167 4.12097 29.6289C3.91048 29.6203 3.70116 29.6631 3.51272 29.7531C3.32428 29.8432 3.16293 29.9777 3.04385 30.1439V29.7015H2.23242V33.2387H3.04078V31.2857C3.04078 30.6589 3.38648 30.3627 3.92504 30.3627C4.4636 30.3627 4.73339 30.6932 4.73339 31.2857V33.2387H5.54174V31.2857C5.52526 31.1674 5.53612 31.0471 5.57356 30.9332C5.611 30.8193 5.6741 30.7147 5.75841 30.6267C5.84273 30.5387 5.94621 30.4694 6.06155 30.4238C6.1769 30.3782 6.30131 30.3573 6.42601 30.3627C6.96456 30.3627 7.23436 30.6932 7.23436 31.2857V33.2387L8.12683 33.2397ZM20.1136 29.7025H18.8026V28.6333H17.9943V29.7025H17.2628V30.4019H17.9943V32.0243C17.9943 32.8355 18.34 33.3123 19.2642 33.3123C19.6148 33.3051 19.9583 33.2169 20.2654 33.0553L20.0316 32.3902C19.8228 32.5137 19.5815 32.5777 19.336 32.5747C18.9503 32.5747 18.7975 32.3519 18.7975 31.9861V30.4019H20.1085V29.7025H20.1136ZM26.9733 29.625C26.7791 29.6213 26.5874 29.6671 26.4178 29.7576C26.2482 29.8481 26.1067 29.98 26.008 30.14V29.6976H25.1997V33.2348H26.008V31.2455C26.008 30.6569 26.2778 30.3225 26.7805 30.3225C26.9502 30.3302 27.1186 30.3545 27.2831 30.395L27.517 29.6564C27.337 29.6316 27.1551 29.6204 26.9733 29.625ZM16.6125 29.9938C16.1609 29.7302 15.6372 29.6018 15.1086 29.625C14.1854 29.625 13.5699 30.0674 13.5699 30.7668C13.5699 31.3554 14.0325 31.6898 14.8398 31.7968L15.2256 31.835C15.6472 31.9086 15.8811 32.0194 15.8811 32.2038C15.8811 32.4608 15.5733 32.6463 15.0327 32.6463C14.5923 32.6476 14.1622 32.5183 13.8017 32.2764L13.416 32.865C13.8819 33.1655 14.4339 33.3201 14.9958 33.3073C16.0729 33.3073 16.6925 32.8267 16.6925 32.1656C16.6925 31.5388 16.1898 31.2082 15.4225 31.0964L15.0368 31.0581C14.6911 31.0189 14.4213 30.9463 14.4213 30.7275C14.4213 30.4696 14.6911 30.3244 15.1168 30.3244C15.5206 30.3409 15.9159 30.4413 16.275 30.6187L16.6166 29.9919L16.6125 29.9938ZM38.1118 29.625C37.9175 29.6212 37.7258 29.6669 37.5561 29.7574C37.3865 29.8479 37.2451 29.9799 37.1465 30.14V29.6976H36.3381V33.2348H37.1465V31.2455C37.1465 30.6569 37.4162 30.3225 37.9189 30.3225C38.0886 30.3302 38.257 30.3545 38.4216 30.395L38.6554 29.6653C38.4763 29.6333 38.2939 29.6205 38.1118 29.627V29.625ZM27.7868 31.4711C27.775 31.7193 27.8181 31.9671 27.9133 32.1983C28.0084 32.4295 28.1536 32.6388 28.3392 32.8127C28.5248 32.9866 28.7467 33.121 28.9904 33.2073C29.2341 33.2936 29.494 33.3297 29.7533 33.3133C30.2248 33.3365 30.6888 33.1941 31.0582 32.913L30.6725 32.2863C30.3994 32.4983 30.0589 32.6149 29.7072 32.6168C29.5526 32.6208 29.399 32.5934 29.2563 32.5364C29.1137 32.4794 28.9853 32.3942 28.8797 32.2863C28.774 32.1784 28.6935 32.0503 28.6434 31.9105C28.5933 31.7706 28.5747 31.6222 28.589 31.475C28.5808 31.3291 28.6036 31.1831 28.6559 31.0459C28.7083 30.9086 28.7891 30.7828 28.8935 30.6762C28.998 30.5695 29.1239 30.4842 29.2637 30.4253C29.4035 30.3663 29.5544 30.335 29.7072 30.3332C30.0584 30.3377 30.3981 30.454 30.6725 30.6638L31.0582 30.037C30.6887 29.7517 30.2214 29.6079 29.7472 29.6338C29.488 29.6174 29.2281 29.6535 28.9845 29.7397C28.7409 29.8259 28.519 29.9603 28.3334 30.134C28.1479 30.3078 28.0027 30.5171 27.9074 30.7481C27.8122 30.9792 27.769 31.2269 27.7807 31.475L27.7868 31.4711ZM35.262 31.4711V29.7054H34.4434V30.1479C34.3071 29.9801 34.131 29.8458 33.9295 29.7563C33.7281 29.6667 33.5072 29.6244 33.2852 29.6329C32.7878 29.6519 32.3173 29.8542 31.9723 30.1975C31.6274 30.5408 31.4347 30.9985 31.4347 31.4745C31.4347 31.9506 31.6274 32.4082 31.9723 32.7515C32.3173 33.0948 32.7878 33.2972 33.2852 33.3162C33.5082 33.3323 33.7318 33.2934 33.9346 33.2032C34.1374 33.1131 34.3126 32.9746 34.4434 32.8012V33.2436H35.2518V31.478L35.262 31.4711ZM32.2943 31.4711C32.2839 31.3247 32.3051 31.1777 32.3566 31.0395C32.408 30.9012 32.4887 30.7745 32.5935 30.6673C32.6983 30.5601 32.825 30.4745 32.9658 30.4161C33.1066 30.3576 33.2584 30.3275 33.4119 30.3275C33.5654 30.3275 33.7173 30.3576 33.8581 30.4161C33.9989 30.4745 34.1256 30.5601 34.2304 30.6673C34.3352 30.7745 34.4158 30.9012 34.4673 31.0395C34.5188 31.1777 34.5399 31.3247 34.5296 31.4711C34.5399 31.6176 34.5188 31.7645 34.4673 31.9027C34.4158 32.041 34.3352 32.1676 34.2304 32.2749C34.1256 32.3821 33.9989 32.4676 33.8581 32.5261C33.7173 32.5845 33.5654 32.6147 33.4119 32.6147C33.2584 32.6147 33.1066 32.5845 32.9658 32.5261C32.825 32.4676 32.6983 32.3821 32.5935 32.2749C32.4887 32.1676 32.408 32.041 32.3566 31.9027C32.3051 31.7645 32.2839 31.6176 32.2943 31.4711ZM22.6238 29.625C22.12 29.64 21.6424 29.8431 21.2934 30.1909C20.9444 30.5387 20.7519 31.0035 20.7571 31.4854C20.7624 31.9674 20.9649 32.4282 21.3214 32.769C21.6778 33.1098 22.1598 33.3034 22.6638 33.3084C23.2082 33.3197 23.7398 33.1498 24.1677 32.8277L23.782 32.2735C23.4732 32.5031 23.0958 32.6323 22.7049 32.6423C22.441 32.6635 22.1786 32.5879 21.971 32.4309C21.7633 32.2739 21.6259 32.0471 21.5867 31.7968H24.3205V31.5025C24.3576 31.2694 24.3414 31.0314 24.273 30.8048C24.2046 30.5783 24.0857 30.3687 23.9245 30.1903C23.7632 30.012 23.5634 29.8691 23.3389 29.7717C23.1143 29.6743 22.8704 29.6236 22.6238 29.625ZM22.6238 30.2901C22.7426 30.2872 22.8608 30.3068 22.9717 30.3478C23.0825 30.3889 23.1837 30.4505 23.2695 30.5291C23.3553 30.6077 23.424 30.7017 23.4717 30.8058C23.5193 30.9099 23.5449 31.022 23.5471 31.1356H21.6206C21.6434 30.8993 21.7598 30.6802 21.9458 30.523C22.1319 30.3659 22.3737 30.2826 22.6218 30.2901H22.6238ZM42.7003 31.4672V28.3027H41.8919V30.1439C41.7557 29.9762 41.5795 29.8419 41.3781 29.7524C41.1766 29.6628 40.9557 29.6205 40.7338 29.6289C40.2363 29.6479 39.7658 29.8503 39.4209 30.1936C39.0759 30.5369 38.8833 30.9945 38.8833 31.4706C38.8833 31.9467 39.0759 32.4043 39.4209 32.7476C39.7658 33.0909 40.2363 33.2932 40.7338 33.3123C40.9568 33.3283 41.1804 33.2894 41.3831 33.1993C41.5859 33.1091 41.7611 32.9707 41.8919 32.7973V33.2397H42.7003V31.4741V31.4672ZM39.7326 31.4672C39.7222 31.3207 39.7434 31.1738 39.7949 31.0356C39.8463 30.8973 39.927 30.7706 40.0318 30.6634C40.1366 30.5561 40.2633 30.4707 40.4041 30.4122C40.5449 30.3537 40.6967 30.3236 40.8502 30.3236C41.0037 30.3236 41.1556 30.3537 41.2963 30.4122C41.4371 30.4707 41.5639 30.5561 41.6687 30.6634C41.7735 30.7706 41.8541 30.8973 41.9056 31.0356C41.957 31.1738 41.9782 31.3207 41.9678 31.4672C41.9782 31.6136 41.957 31.7605 41.9056 31.8988C41.8541 32.037 41.7735 32.1638 41.6687 32.271C41.5639 32.3782 41.4371 32.4637 41.2963 32.5221C41.1556 32.5806 41.0037 32.6108 40.8502 32.6108C40.6967 32.6108 40.5449 32.5806 40.4041 32.5221C40.2633 32.4637 40.1366 32.3782 40.0318 32.271C39.927 32.1638 39.8463 32.037 39.7949 31.8988C39.7434 31.7605 39.7222 31.6136 39.7326 31.4672ZM12.6795 31.4672V29.7015H11.8711V30.1439C11.7348 29.9762 11.5586 29.8419 11.3572 29.7524C11.1558 29.6628 10.9349 29.6205 10.7129 29.6289C10.2155 29.6479 9.74497 29.8503 9.40001 30.1936C9.05506 30.5369 8.86241 30.9945 8.86241 31.4706C8.86241 31.9467 9.05506 32.4043 9.40001 32.7476C9.74497 33.0909 10.2155 33.2932 10.7129 33.3123C10.9359 33.3283 11.1595 33.2894 11.3623 33.1993C11.5651 33.1091 11.7403 32.9707 11.8711 32.7973V33.2397H12.6795V31.4741V31.4672ZM9.67583 31.4672C9.66545 31.3207 9.68665 31.1738 9.73811 31.0356C9.78958 30.8973 9.87022 30.7706 9.97502 30.6634C10.0798 30.5561 10.2065 30.4707 10.3473 30.4122C10.4881 30.3537 10.64 30.3236 10.7935 30.3236C10.947 30.3236 11.0988 30.3537 11.2396 30.4122C11.3804 30.4707 11.5071 30.5561 11.6119 30.6634C11.7167 30.7706 11.7973 30.8973 11.8488 31.0356C11.9003 31.1738 11.9215 31.3207 11.9111 31.4672C11.9215 31.6136 11.9003 31.7605 11.8488 31.8988C11.7973 32.037 11.7167 32.1638 11.6119 32.271C11.5071 32.3782 11.3804 32.4637 11.2396 32.5221C11.0988 32.5806 10.947 32.6108 10.7935 32.6108C10.64 32.6108 10.4881 32.5806 10.3473 32.5221C10.2065 32.4637 10.0798 32.3782 9.97502 32.271C9.87022 32.1638 9.78958 32.037 9.73811 31.8988C9.68665 31.7605 9.66545 31.6136 9.67583 31.4672Z" fill="black"/>
<path d="M28.476 2.83789H16.3374V23.6921H28.476V2.83789Z" fill="#FF5A00"/>
<path d="M17.1474 13.2648C17.1482 11.2586 17.6235 9.27851 18.5379 7.47279C19.4522 5.66708 20.7819 4.08253 22.4273 2.83774C20.6885 1.53312 18.6487 0.644826 16.478 0.246911C14.3073 -0.151003 12.0686 -0.0470139 9.9485 0.550211C7.82838 1.14744 5.88825 2.22059 4.28984 3.68023C2.69144 5.13987 1.48106 6.94371 0.759594 8.94138C0.0381298 10.939 -0.173517 13.0727 0.142294 15.1644C0.458106 17.2562 1.29223 19.2455 2.57513 20.9664C3.85803 22.6874 5.55255 24.0902 7.51744 25.058C9.48233 26.0257 11.6607 26.5303 13.8709 26.5297C16.9757 26.5313 19.9903 25.5315 22.4273 23.6919C20.7784 22.4501 19.4463 20.8662 18.5316 19.0598C17.6169 17.2534 17.1436 15.2718 17.1474 13.2648Z" fill="#EB001B"/>
<path d="M44.854 13.2644C44.8564 15.7526 44.1262 18.1912 42.7469 20.3011C41.3676 22.411 39.395 24.107 37.0548 25.1949C34.7146 26.2829 32.1014 26.7189 29.5142 26.453C26.927 26.1871 24.4703 25.2301 22.4253 23.6915C24.0712 22.4472 25.4012 20.8627 26.3156 19.0569C27.2299 17.2511 27.7049 15.2708 27.7049 13.2644C27.7049 11.2581 27.2299 9.27777 26.3156 7.47195C25.4012 5.66613 24.0712 4.08166 22.4253 2.83733C24.4703 1.29874 26.927 0.341747 29.5142 0.0758775C32.1014 -0.189992 34.7146 0.245999 37.0548 1.33396C39.395 2.42191 41.3676 4.11788 42.7469 6.22777C44.1262 8.33767 44.8564 10.7762 44.854 13.2644Z" fill="#F79E1B"/>
</svg>
