<svg width="68" height="28" viewBox="0 0 68 28" fill="none" xmlns="http://www.w3.org/2000/svg">
<g clip-path="url(#clip0_942_410)">
<path d="M12.4253 3.59661C11.6284 4.53879 10.3531 5.28218 9.07798 5.17589C8.91861 3.90195 9.54283 2.54813 10.2734 1.71198C11.0703 0.743261 12.4651 0.0530806 13.5941 0C13.727 1.32715 13.2089 2.62775 12.4253 3.59661ZM13.581 5.42815C11.7346 5.32199 10.154 6.47649 9.27734 6.47649C8.38749 6.47649 7.04582 5.48123 5.58475 5.50777C3.6854 5.53431 1.91873 6.60919 0.949061 8.32131C-1.04339 11.7454 0.431093 16.8153 2.35701 19.6023C3.30011 20.9825 4.42915 22.4954 5.91678 22.4423C7.32486 22.3893 7.88267 21.5267 9.58294 21.5267C11.2964 21.5267 11.7879 22.4423 13.2755 22.4158C14.8163 22.3893 15.7859 21.0357 16.729 19.6553C17.8048 18.0893 18.2432 16.563 18.2698 16.4834C18.2432 16.4568 15.2945 15.3289 15.268 11.9312C15.2414 9.09111 17.5925 7.73742 17.6987 7.6578C16.3703 5.69355 14.2983 5.48123 13.581 5.42815ZM24.2472 1.57928V22.27H27.4615V15.1962H31.9112C35.9757 15.1962 38.8316 12.4092 38.8316 8.37452C38.8316 4.34 36.0288 1.57941 32.0175 1.57941L24.2472 1.57928ZM27.4615 4.28679H31.1674C33.9568 4.28679 35.5507 5.77318 35.5507 8.38766C35.5507 11.0021 33.9568 12.5019 31.1541 12.5019H27.4615V4.28679ZM44.7024 22.4291C46.7214 22.4291 48.5942 21.4073 49.4444 19.788H49.5108V22.2698H52.4862V11.971C52.4862 8.98495 50.0953 7.06051 46.4158 7.06051C43.0022 7.06051 40.4784 9.01149 40.3855 11.6923H43.2812C43.5203 10.4183 44.7023 9.5821 46.3229 9.5821C48.2888 9.5821 49.3912 10.4979 49.3912 12.1835V13.3247L45.3798 13.5635C41.6473 13.7891 39.6285 15.3155 39.6285 17.9699C39.6285 20.6507 41.7137 22.4291 44.7024 22.4291ZM45.5657 19.9738C43.8524 19.9738 42.7631 19.1511 42.7631 17.8901C42.7631 16.5897 43.8124 15.8331 45.8182 15.7137L49.3912 15.4881V16.6559C49.3912 18.5936 47.7442 19.9738 45.5658 19.9738M56.4578 27.897C59.5926 27.897 61.0669 26.7027 62.3553 23.0794L68.0004 7.25956H64.7328L60.9473 19.4827H60.8808L57.0953 7.25956H53.7347L59.1806 22.3229L58.8884 23.2387C58.397 24.7914 57.6 25.3887 56.1787 25.3887C55.9264 25.3887 55.435 25.3622 55.2356 25.3356V27.8174C55.4216 27.8705 56.2185 27.897 56.4577 27.897" fill="black"/>
</g>
<defs>
<clipPath id="clip0_942_410">
<rect width="68" height="28" fill="white"/>
</clipPath>
</defs>
</svg>
