<svg width="46" height="52" viewBox="0 0 46 52" fill="none" xmlns="http://www.w3.org/2000/svg">
<g clip-path="url(#clip0_426_5119)">
<mask id="mask0_426_5119" style="mask-type:luminance" maskUnits="userSpaceOnUse" x="0" y="0" width="46" height="52">
<path d="M46 0H0V52H46V0Z" fill="white"/>
</mask>
<g mask="url(#mask0_426_5119)">
<path d="M32.297 0H9.94783L0 47.1848L11.1796 40.5108L13.5333 29.4041H25.3956C26.4935 29.3975 27.5904 29.4712 28.6776 29.6244L29.2506 29.7106L40.516 22.9785L40.6817 22.8383L40.9193 22.638C43.3636 20.3935 45.0214 17.418 45.6466 14.1532C46.3322 11.4498 46.0627 8.59156 44.884 6.0651C42.9057 2.03706 38.6714 0 32.297 0ZM35.6908 14.2694C35.5126 15.4596 35.0383 16.5856 34.3119 17.5434C33.5854 18.5012 32.6302 19.26 31.5344 19.7496C29.595 20.5119 27.5187 20.8611 25.4375 20.7752H15.352L17.8694 8.7972H28.3941C30.3197 8.67373 32.2504 8.93937 34.0718 9.57837C35.1758 10.1032 36.3596 11.1067 35.6808 14.2694" fill="url(#paint0_linear_426_5119)"/>
<path d="M31.2887 40.189C30.2252 41.2315 28.9534 42.0358 27.5573 42.5489C26.1612 43.0619 24.6725 43.2721 23.1895 43.1655H14.9406L0.1875 52.0008H21.9098C24.8828 52.1425 27.8532 51.6712 30.6376 50.616C33.4219 49.5608 35.9611 47.944 38.0983 45.8656C40.6783 43.3501 42.4692 40.1329 43.2509 36.6097C43.6875 35.0648 43.8098 33.4477 43.6105 31.8544C43.4113 30.2612 42.8945 28.7244 42.091 27.3358L41.8913 27.0293L33.4328 32.0929L33.5087 32.2772C33.8861 33.3547 33.9285 34.5219 33.6304 35.6242C33.2842 37.335 32.4706 38.9154 31.2807 40.189" fill="url(#paint1_linear_426_5119)"/>
</g>
</g>
<defs>
<linearGradient id="paint0_linear_426_5119" x1="3.0832" y1="6.5115" x2="39.7372" y2="46.272" gradientUnits="userSpaceOnUse">
<stop stop-color="#F8A457"/>
<stop offset="0.355" stop-color="#E62234"/>
<stop offset="0.724" stop-color="#C23770"/>
<stop offset="1" stop-color="#9D1C82"/>
</linearGradient>
<linearGradient id="paint1_linear_426_5119" x1="3.10306" y1="30.4788" x2="18.9885" y2="61.2383" gradientUnits="userSpaceOnUse">
<stop stop-color="#F8A457"/>
<stop offset="0.355" stop-color="#E62234"/>
<stop offset="0.724" stop-color="#C23770"/>
<stop offset="1" stop-color="#9D1C82"/>
</linearGradient>
<clipPath id="clip0_426_5119">
<rect width="46" height="52" fill="white"/>
</clipPath>
</defs>
</svg>
