<svg width="59" height="20" viewBox="0 0 59 20" fill="none" xmlns="http://www.w3.org/2000/svg">
<path d="M30.5134 6.09117C30.4797 8.74525 32.8787 10.2262 34.6858 11.1069C36.5424 12.0103 37.1661 12.5897 37.1587 13.3977C37.1449 14.6342 35.6777 15.1799 34.3048 15.2011C31.9096 15.2382 30.5168 14.5544 29.4097 14.0373L28.5468 18.0749C29.6576 18.5867 31.7146 19.0331 33.8476 19.0527C38.8545 19.0527 42.1301 16.5812 42.1479 12.7492C42.1675 7.88583 35.421 7.61664 35.4671 5.44286C35.483 4.78372 36.1119 4.08033 37.4901 3.90149C38.1723 3.81114 40.0555 3.742 42.1905 4.72518L43.0285 0.818739C41.8803 0.400669 40.4046 0.000343323 38.5673 0.000343323C33.8547 0.000343323 30.5401 2.50554 30.5134 6.09117ZM51.0806 0.336828C50.1664 0.336828 49.3959 0.870132 49.052 1.68853L41.8999 18.7658H46.9032L47.8988 16.0142H54.0127L54.5902 18.7658H59L55.1519 0.336828H51.0806ZM51.7806 5.31518L53.2245 12.2355H49.2701L51.7806 5.31518ZM24.4472 0.337059L20.5034 18.7656H25.2711L29.2131 0.336597L24.4472 0.337059ZM17.3942 0.337059L12.4317 12.8803L10.4243 2.21492C10.1888 1.02432 9.25862 0.336828 8.22566 0.336828H0.113621L0 0.871977C1.66537 1.23335 3.55752 1.81621 4.70387 2.43986C5.40541 2.82082 5.60546 3.15385 5.83593 4.05913L9.63797 18.7658H14.6763L22.4006 0.336828L17.3942 0.337059Z" fill="url(#paint0_linear_942_420)"/>
<defs>
<linearGradient id="paint0_linear_942_420" x1="2712.47" y1="57.2718" x2="2767.61" y2="-1899.44" gradientUnits="userSpaceOnUse">
<stop stop-color="#222357"/>
<stop offset="1" stop-color="#254AA5"/>
</linearGradient>
</defs>
</svg>
