<svg width="20" height="20" viewBox="0 0 20 20" fill="none" xmlns="http://www.w3.org/2000/svg">
<path d="M5.53237 1C6.05036 1 8.1223 5.66187 8.1223 6.17986C8.1223 7.21583 6.56835 8.2518 6.05036 9.28777C5.53237 10.3237 6.56835 11.3597 7.60432 12.3957C8.00834 12.7997 9.67626 14.4676 10.7122 13.9496C11.7482 13.4317 12.7842 11.8777 13.8201 11.8777C14.3381 11.8777 19 13.9496 19 14.4676C19 16.5396 17.446 18.0935 15.8921 18.6115C14.3381 19.1295 13.3022 19.1295 11.2302 18.6115C9.15827 18.0935 7.60432 17.5755 5.01439 14.9856C2.42446 12.3957 1.90647 10.8417 1.38849 8.76978C0.870504 6.69784 0.870504 5.66187 1.38849 4.10791C1.90647 2.55396 3.46043 1 5.53237 1Z" stroke="#9DA4AE" stroke-width="1.5" stroke-linecap="round" stroke-linejoin="round"/>
</svg>
