<svg width="60" height="60" viewBox="0 0 60 60" fill="none" xmlns="http://www.w3.org/2000/svg">
<rect width="60" height="60" rx="30" fill="#FFF7F7"/>
<path d="M21.5612 13C22.5396 13 26.4532 21.8058 26.4532 22.7842C26.4532 24.741 23.518 26.6978 22.5396 28.6547C21.5612 30.6115 23.518 32.5683 25.4748 34.5252C26.238 35.2883 29.3885 38.4388 31.3453 37.4604C33.3022 36.482 35.259 33.5468 37.2158 33.5468C38.1942 33.5468 47 37.4604 47 38.4388C47 42.3525 44.0647 45.2878 41.1295 46.2662C38.1942 47.2446 36.2374 47.2446 32.3237 46.2662C28.4101 45.2878 25.4748 44.3094 20.5827 39.4173C15.6906 34.5252 14.7122 31.5899 13.7338 27.6763C12.7554 23.7626 12.7554 21.8058 13.7338 18.8705C14.7122 15.9353 17.6475 13 21.5612 13Z" stroke="#E20512" stroke-width="3" stroke-linecap="round" stroke-linejoin="round"/>
</svg>
