<svg width="50" height="50" viewBox="0 0 50 50" fill="none" xmlns="http://www.w3.org/2000/svg">
<rect width="50" height="50" rx="25" fill="#FAD7D9"/>
<path d="M17.22 15.3319C18.2415 14.2756 19.4542 13.4376 20.7889 12.8659C22.1236 12.2943 23.5541 12 24.9988 12C26.4435 12 27.874 12.2943 29.2087 12.8659C30.5434 13.4376 31.7562 14.2756 32.7776 15.3319C34.841 17.4667 36 20.3613 36 23.3794C36 26.3976 34.841 29.2922 32.7776 31.4269L31.005 33.2371L27.1785 37.0882C26.6288 37.6383 25.9034 37.9614 25.1392 37.9968C24.375 38.0321 23.6247 37.7771 23.0298 37.28L22.8208 37.0882L19.6102 33.8627L17.2216 31.4269C15.1587 29.2922 14 26.398 14 23.3803C14 20.3625 15.1587 17.4683 17.2216 15.3336M24.9988 19.313C23.9569 19.313 22.9576 19.741 22.2208 20.5029C21.484 21.2647 21.0701 22.298 21.0701 23.3754C21.0701 24.4528 21.484 25.486 22.2208 26.2479C22.9576 27.0097 23.9569 27.4377 24.9988 27.4377C26.0408 27.4377 27.0401 27.0097 27.7768 26.2479C28.5136 25.486 28.9275 24.4528 28.9275 23.3754C28.9275 22.298 28.5136 21.2647 27.7768 20.5029C27.0401 19.741 26.0408 19.313 24.9988 19.313Z" fill="url(#paint0_linear_594_1347)"/>
<defs>
<linearGradient id="paint0_linear_594_1347" x1="36" y1="26.8958" x2="13.9981" y2="26.9509" gradientUnits="userSpaceOnUse">
<stop stop-color="#E20512"/>
<stop offset="1" stop-color="#AD010B"/>
</linearGradient>
</defs>
</svg>
