<svg width="60" height="60" viewBox="0 0 60 60" fill="none" xmlns="http://www.w3.org/2000/svg">
<rect width="60" height="60" rx="30" fill="#FFF7F7"/>
<path d="M30 11C34.2435 11 38.3131 12.7157 41.3137 15.7698C44.3143 18.8239 46 22.966 46 27.2851C46 35.0857 37.7413 43.6137 33.0933 47.799C31.3067 49.4003 28.6933 49.4003 26.9067 47.799C22.2613 43.6137 14 35.0857 14 27.2851C14 22.966 15.6857 18.8239 18.6863 15.7698C21.6869 12.7157 25.7565 11 30 11ZM30 13.7142C26.4638 13.7142 23.0724 15.144 20.5719 17.689C18.0714 20.2341 16.6667 23.6859 16.6667 27.2851C16.6667 30.2925 18.304 33.7856 20.8533 37.2815C23.3413 40.6959 26.4187 43.7331 28.6773 45.766C29.4507 46.4609 30.5493 46.4609 31.3227 45.766C33.5813 43.7331 36.656 40.6987 39.1493 37.2815C41.696 33.7856 43.3333 30.2925 43.3333 27.2851C43.3333 23.6859 41.9286 20.2341 39.4281 17.689C36.9276 15.144 33.5362 13.7142 30 13.7142ZM30 21.1782C30.7879 21.1782 31.5681 21.3362 32.2961 21.6431C33.0241 21.95 33.6855 22.3998 34.2426 22.9669C34.7998 23.534 35.2417 24.2072 35.5433 24.9481C35.8448 25.689 36 26.4832 36 27.2851C36 28.0871 35.8448 28.8812 35.5433 29.6222C35.2417 30.3631 34.7998 31.0363 34.2426 31.6034C33.6855 32.1705 33.0241 32.6203 32.2961 32.9272C31.5681 33.2341 30.7879 33.3921 30 33.3921C28.4087 33.3921 26.8826 32.7487 25.7574 31.6034C24.6321 30.4581 24 28.9048 24 27.2851C24 25.6655 24.6321 24.1122 25.7574 22.9669C26.8826 21.8216 28.4087 21.1782 30 21.1782ZM30 23.8924C29.1159 23.8924 28.2681 24.2498 27.643 24.8861C27.0179 25.5224 26.6667 26.3853 26.6667 27.2851C26.6667 28.1849 27.0179 29.0479 27.643 29.6842C28.2681 30.3204 29.1159 30.6779 30 30.6779C30.8841 30.6779 31.7319 30.3204 32.357 29.6842C32.9821 29.0479 33.3333 28.1849 33.3333 27.2851C33.3333 26.3853 32.9821 25.5224 32.357 24.8861C31.7319 24.2498 30.8841 23.8924 30 23.8924Z" fill="url(#paint0_linear_594_1403)" stroke="url(#paint1_linear_594_1403)"/>
<defs>
<linearGradient id="paint0_linear_594_1403" x1="46" y1="32.7708" x2="13.9972" y2="32.8506" gradientUnits="userSpaceOnUse">
<stop stop-color="#E20512"/>
<stop offset="1" stop-color="#AD010B"/>
</linearGradient>
<linearGradient id="paint1_linear_594_1403" x1="46" y1="32.7708" x2="13.9972" y2="32.8506" gradientUnits="userSpaceOnUse">
<stop stop-color="#E20512"/>
<stop offset="1" stop-color="#AD010B"/>
</linearGradient>
</defs>
</svg>
