<svg width="24" height="24" viewBox="0 0 24 24" fill="none" xmlns="http://www.w3.org/2000/svg">
<path d="M12 22.001C10.75 22.001 9.57933 21.7636 8.488 21.289C7.39667 20.8143 6.44667 20.1726 5.638 19.364C4.82933 18.5553 4.18767 17.6053 3.713 16.514C3.23833 15.4226 3.00067 14.2516 3 13.001C3 12.7176 3.096 12.4803 3.288 12.289C3.48 12.0976 3.71733 12.0016 4 12.001C4.28267 12.0003 4.52033 12.0963 4.713 12.289C4.90567 12.4816 5.00133 12.719 5 13.001C5 14.951 5.67933 16.6053 7.038 17.964C8.39667 19.3226 10.0507 20.0016 12 20.001C13.9493 20.0003 15.6037 19.3213 16.963 17.964C18.3223 16.6066 19.0013 14.9523 19 13.001C18.9987 11.0496 18.3197 9.39563 16.963 8.03896C15.6063 6.68229 13.952 6.00296 12 6.00096H11.85L12.7 6.85096C12.9 7.05096 12.996 7.28429 12.988 7.55096C12.98 7.81763 12.884 8.05096 12.7 8.25096C12.5 8.45096 12.2627 8.55529 11.988 8.56396C11.7133 8.57263 11.4757 8.47663 11.275 8.27596L8.7 5.70096C8.5 5.50096 8.4 5.26763 8.4 5.00096C8.4 4.73429 8.5 4.50096 8.7 4.30096L11.275 1.72596C11.475 1.52596 11.7127 1.42996 11.988 1.43796C12.2633 1.44596 12.5007 1.55029 12.7 1.75096C12.8833 1.95096 12.9793 2.18429 12.988 2.45096C12.9967 2.71763 12.9007 2.95096 12.7 3.15096L11.85 4.00096H12C13.25 4.00096 14.421 4.23863 15.513 4.71396C16.605 5.18929 17.555 5.83096 18.363 6.63896C19.171 7.44696 19.8127 8.39696 20.288 9.48896C20.7633 10.581 21.0007 11.7516 21 13.001C20.9993 14.2503 20.762 15.4213 20.288 16.514C19.814 17.6066 19.1723 18.5566 18.363 19.364C17.5537 20.1713 16.6037 20.813 15.513 21.289C14.4223 21.765 13.2513 22.0023 12 22.001Z" fill="white"/>
</svg>
