<svg width="16" height="28" viewBox="0 0 16 28" fill="none" xmlns="http://www.w3.org/2000/svg">
<path d="M2.39648 0.500977C2.15765 0.494387 1.91912 0.533921 1.69531 0.617188C1.47164 0.700443 1.26608 0.825798 1.09082 0.987305C0.915475 1.14892 0.773198 1.34316 0.673828 1.55957C0.57448 1.77598 0.51963 2.01016 0.512695 2.24805C0.505793 2.48603 0.547034 2.72349 0.633789 2.94531C0.720485 3.16686 0.851854 3.36794 1.01758 3.53906L11.1396 13.9922L1.0166 24.4482H1.01758C0.850111 24.6177 0.717843 24.8183 0.628906 25.0391C0.539149 25.2619 0.49464 25.5002 0.5 25.7402C0.505362 25.9803 0.559619 26.2169 0.65918 26.4355C0.75871 26.6541 0.902211 26.8498 1.0791 27.0127C1.25603 27.1756 1.46339 27.3026 1.68945 27.3857C1.91543 27.4689 2.15573 27.5073 2.39648 27.499C2.63733 27.4907 2.87507 27.4356 3.09473 27.3369C3.31412 27.2383 3.51204 27.0977 3.67676 26.9229V26.9219L14.9951 15.2334C15.318 14.9003 15.4999 14.4566 15.5 13.9932C15.5 13.5296 15.3181 13.0852 14.9951 12.752L3.67188 1.05957V1.05859C3.50605 0.887544 3.30752 0.75076 3.08887 0.655273C2.87027 0.559861 2.63508 0.507606 2.39648 0.500977Z" fill="#E20512" stroke="#E20512"/>
</svg>
