<svg width="392" height="392" viewBox="0 0 392 392" fill="none" xmlns="http://www.w3.org/2000/svg">
<g clip-path="url(#clip0_423_1303)">
<mask id="mask0_423_1303" style="mask-type:luminance" maskUnits="userSpaceOnUse" x="0" y="0" width="392" height="392">
<path d="M0 -3.05176e-05H392V392H0V-3.05176e-05Z" fill="white"/>
</mask>
<g mask="url(#mask0_423_1303)">
<path fill-rule="evenodd" clip-rule="evenodd" d="M203.581 350.175C251.801 350.175 291.129 335.855 291.129 318.296C291.129 300.738 251.801 286.417 203.581 286.417C155.361 286.417 116.032 300.738 116.032 318.296C116.032 335.855 155.361 350.175 203.581 350.175Z" fill="#F5F6F6"/>
</g>
<mask id="mask1_423_1303" style="mask-type:luminance" maskUnits="userSpaceOnUse" x="0" y="0" width="392" height="392">
<path d="M0 -3.05176e-05H392V392H0V-3.05176e-05Z" fill="white"/>
</mask>
<g mask="url(#mask1_423_1303)">
<path fill-rule="evenodd" clip-rule="evenodd" d="M254.402 231.386C255.174 236.076 257.205 236.965 257.205 241.795C257.205 244.739 258.946 244.567 258.995 248.341C258.997 248.511 260.811 249.724 260.654 244.591C260.626 243.689 262.091 241.992 262.091 246.203C262.091 247.749 262.019 249.291 262.019 250.791C264.456 250.791 265.213 246.123 265.59 243.869C266.433 238.811 263.438 238.41 260.938 234.473C260.362 233.569 257.061 227.331 256.474 229.458C255.686 232.317 255.482 231.311 254.39 231.231L254.402 231.386Z" fill="#F28F62"/>
</g>
<mask id="mask2_423_1303" style="mask-type:luminance" maskUnits="userSpaceOnUse" x="0" y="0" width="392" height="392">
<path d="M0 -3.05176e-05H392V392H0V-3.05176e-05Z" fill="white"/>
</mask>
<g mask="url(#mask2_423_1303)">
<path fill-rule="evenodd" clip-rule="evenodd" d="M231.835 303.038C231.213 311.296 227.491 317.501 227.439 318.465C227.094 324.921 235.161 323.752 240.473 326.251C242.575 327.24 251.798 329.916 253.743 328.588C256.03 327.024 256.142 321.768 250.867 320.539C249.72 320.271 240.104 311.574 239.381 310.727C237.7 308.758 233.608 303.916 231.835 303.038ZM166.868 299.444C163.87 302.486 162.804 306.265 157.798 311.306C153.451 315.686 155.517 322.274 159.934 324.97C165.389 328.301 166.899 322.052 168.27 317.471C170.131 311.255 176.163 301.844 167.446 299.391L166.868 299.444Z" fill="#E20613" fill-opacity="0.9"/>
</g>
<mask id="mask3_423_1303" style="mask-type:luminance" maskUnits="userSpaceOnUse" x="0" y="0" width="392" height="392">
<path d="M0 -3.05176e-05H392V392H0V-3.05176e-05Z" fill="white"/>
</mask>
<g mask="url(#mask3_423_1303)">
<path fill-rule="evenodd" clip-rule="evenodd" d="M176.496 120.208C171.724 112.687 179.422 105.899 173.837 99.4984C170.649 95.8451 169.816 91.5717 164.782 101.26C161.52 107.538 163.477 109.534 166.256 115.597C167.663 118.665 168.762 115.305 170.243 122.315C170.716 124.546 172.284 129.68 174.376 124.808C175.73 121.651 176.088 123.081 176.496 120.208Z" fill="#F28F62"/>
</g>
<mask id="mask4_423_1303" style="mask-type:luminance" maskUnits="userSpaceOnUse" x="0" y="0" width="392" height="392">
<path d="M0 -3.05176e-05H392V392H0V-3.05176e-05Z" fill="white"/>
</mask>
<g mask="url(#mask4_423_1303)">
<path fill-rule="evenodd" clip-rule="evenodd" d="M192.584 223.994C185.694 230.486 165.122 279.049 164.16 299.189C163.645 309.945 171.771 311.543 176.231 303.796C180.436 296.491 184.773 283.545 191.404 272.555C196.822 263.576 197.431 260.496 200.195 256.198C207.348 245.076 211.32 243.803 217.568 273.555C221.119 290.475 220.71 301.65 226.322 309.031C227.461 310.527 228.847 311.869 230.563 313.071C232.775 314.618 235.502 314.753 237.856 313.429C240.209 312.107 241.512 309.706 241.34 307.012C239.258 274.366 243.687 272.411 224.509 231.292C222.692 227.398 218.953 215.857 216.016 213.839L192.584 223.994Z" fill="#E20512" fill-opacity="0.5"/>
</g>
<mask id="mask5_423_1303" style="mask-type:luminance" maskUnits="userSpaceOnUse" x="0" y="0" width="392" height="392">
<path d="M0 -3.05176e-05H392V392H0V-3.05176e-05Z" fill="white"/>
</mask>
<g mask="url(#mask5_423_1303)">
<path fill-rule="evenodd" clip-rule="evenodd" d="M211.157 251.961C215.126 255.05 217.887 259.667 219.976 264.075C222.842 270.122 226.755 302.52 229.825 304.58C229.933 304.652 232.085 310.566 234.662 314.331C233.238 314.37 231.817 313.947 230.563 313.071C228.847 311.869 227.461 310.527 226.322 309.031C220.71 301.65 221.119 290.475 217.568 273.555C215.202 262.295 213.164 255.482 211.157 251.961ZM206.238 249.255L206.238 249.252L206.242 249.254L206.238 249.255ZM192.584 223.995C186.062 230.14 167.283 273.978 164.479 295.726C166.288 294.11 167.607 292.321 168.195 290.319C170.413 282.742 173.656 276.579 175.332 267.582C176.937 258.957 187.742 235.954 196.226 232.97C201.382 231.157 213.881 229.426 209.8 218.826C209.555 218.186 209.225 217.564 208.825 216.955L192.584 223.995Z" fill="#75050B"/>
</g>
<mask id="mask6_423_1303" style="mask-type:luminance" maskUnits="userSpaceOnUse" x="0" y="0" width="392" height="392">
<path d="M0 -3.05176e-05H392V392H0V-3.05176e-05Z" fill="white"/>
</mask>
<g mask="url(#mask6_423_1303)">
<path fill-rule="evenodd" clip-rule="evenodd" d="M197.362 208.154C192.476 233.648 198.97 238.107 216.484 236.42C226.563 235.45 228.295 214.82 221.836 211.539C208.552 204.793 212.857 205.525 197.362 208.154Z" fill="#2F2825"/>
</g>
<mask id="mask7_423_1303" style="mask-type:luminance" maskUnits="userSpaceOnUse" x="0" y="0" width="392" height="392">
<path d="M0 -3.05176e-05H392V392H0V-3.05176e-05Z" fill="white"/>
</mask>
<g mask="url(#mask7_423_1303)">
<path fill-rule="evenodd" clip-rule="evenodd" d="M225.198 229.87C219.349 233.144 204.491 231.764 198.519 226.123C189.643 217.74 195.426 208.213 191.899 188.028C190.179 178.187 180.157 161.333 176.211 150.812C174.095 145.167 168.455 132.91 169.668 125.838C170.818 119.133 174.995 115.376 183.427 123.58C187.457 127.502 191.67 150.07 198.976 157.686C217.22 176.706 241.091 166.041 245.574 189.38C247.013 196.876 245.066 193.303 248.436 206.095C251.693 218.46 258.198 225.713 260.28 228.957C262.049 231.717 259.376 238.902 254.86 237.645C250.819 236.52 238.224 230.253 237.08 220.947C236.098 212.955 233.406 209.883 233.071 212.515C232.357 218.13 229.221 227.619 225.198 229.87Z" fill="#E20613" fill-opacity="0.9"/>
</g>
<mask id="mask8_423_1303" style="mask-type:luminance" maskUnits="userSpaceOnUse" x="0" y="0" width="392" height="392">
<path d="M0 -3.05176e-05H392V392H0V-3.05176e-05Z" fill="white"/>
</mask>
<g mask="url(#mask8_423_1303)">
<path fill-rule="evenodd" clip-rule="evenodd" d="M233.071 212.516L233.068 212.542C233.069 212.532 233.069 212.523 233.071 212.516ZM193.476 215.887C192.646 209.249 194.123 200.758 191.899 188.028C190.179 178.188 180.156 161.333 176.211 150.812C175.294 148.364 173.713 144.673 172.316 140.7C175.274 145.905 176.507 148.75 182.715 154.608C184.962 156.729 188.944 178.026 191.937 176.027C195.225 173.829 190.522 163.209 196.368 171.222C201.694 178.524 194.824 188.588 194.824 199.143C194.824 201.07 194.215 210.308 193.476 215.887ZM260.023 234.612C259.03 236.692 257.192 238.294 254.86 237.646C250.819 236.52 238.223 230.253 237.08 220.946C236.179 213.623 233.845 210.432 233.203 211.976C233.976 208.951 234.672 209.021 235.069 204.556C235.118 204.011 235.731 197.311 235.806 197.185C235.865 197.178 236.486 205.929 238.914 211.696C241.879 218.742 241.158 222.879 246.1 229.357C250.309 234.875 256.003 234.974 260.023 234.612Z" fill="#E20613"/>
</g>
<mask id="mask9_423_1303" style="mask-type:luminance" maskUnits="userSpaceOnUse" x="0" y="0" width="392" height="392">
<path d="M0 -3.05176e-05H392V392H0V-3.05176e-05Z" fill="white"/>
</mask>
<g mask="url(#mask9_423_1303)">
<path fill-rule="evenodd" clip-rule="evenodd" d="M215.604 171.717C213.605 167.469 218.058 162.382 210.918 158.668C208.06 157.181 209.566 143.854 210.109 140.928C211.197 135.059 211.503 126.968 219.953 129.076C221.262 129.402 221.69 131.452 224.885 132.989C230.25 135.57 233.108 143.179 231.986 149.272C231.259 153.219 229.408 159.703 226.491 162.51C224.171 164.741 225.319 175.259 221.407 175.259C219.702 175.259 214.834 172.952 215.604 171.717Z" fill="#F28F62"/>
</g>
<mask id="mask10_423_1303" style="mask-type:luminance" maskUnits="userSpaceOnUse" x="0" y="0" width="392" height="392">
<path d="M0 -3.05176e-05H392V392H0V-3.05176e-05Z" fill="white"/>
</mask>
<g mask="url(#mask10_423_1303)">
<path fill-rule="evenodd" clip-rule="evenodd" d="M210.574 138.19C209.726 135.119 209.998 125.287 215.13 124.671C218.519 124.263 217.107 124.139 220.239 126.055C221.508 126.831 226.726 131.407 227.313 132.785C228.75 136.168 236.193 135.387 234.102 139.188C231.835 143.312 237.041 144.599 234.702 152.031C233.615 155.488 230.94 161.136 227.15 161.982C226.108 162.215 226.643 161.527 226.623 159.506C226.568 154.058 228.943 151.081 223.832 147.346C216.585 142.049 223.13 136.666 215.921 136.666C212.836 136.666 211.09 138.537 210.68 138.338C210.574 138.286 210.607 138.309 210.574 138.19Z" fill="#2F2825"/>
</g>
<mask id="mask11_423_1303" style="mask-type:luminance" maskUnits="userSpaceOnUse" x="0" y="0" width="392" height="392">
<path d="M0 -3.05176e-05H392V392H0V-3.05176e-05Z" fill="white"/>
</mask>
<g mask="url(#mask11_423_1303)">
<path fill-rule="evenodd" clip-rule="evenodd" d="M227.2 146.261C229.099 146.261 230.34 148.355 229.971 150.938C229.603 153.522 227.763 155.616 225.864 155.616C223.963 155.616 222.722 153.522 223.091 150.938C223.46 148.355 225.299 146.261 227.2 146.261Z" fill="#F28F62"/>
</g>
<mask id="mask12_423_1303" style="mask-type:luminance" maskUnits="userSpaceOnUse" x="0" y="0" width="392" height="392">
<path d="M0 -3.05176e-05H392V392H0V-3.05176e-05Z" fill="white"/>
</mask>
<g mask="url(#mask12_423_1303)">
<path fill-rule="evenodd" clip-rule="evenodd" d="M191.353 65.8316L197.22 71.341L184.43 84.9624L178.562 79.453L191.353 65.8316Z" fill="#463D3B"/>
</g>
<mask id="mask13_423_1303" style="mask-type:luminance" maskUnits="userSpaceOnUse" x="0" y="0" width="392" height="392">
<path d="M0 -3.05176e-05H392V392H0V-3.05176e-05Z" fill="white"/>
</mask>
<g mask="url(#mask13_423_1303)">
<path fill-rule="evenodd" clip-rule="evenodd" d="M244.957 14.6244C260.35 29.0785 261.111 53.2744 246.657 68.6675C232.203 84.0606 208.007 84.8221 192.614 70.368C177.221 55.9139 176.459 31.718 190.914 16.3248C205.368 0.931114 229.564 0.17028 244.957 14.6244Z" fill="#463D3B"/>
</g>
<mask id="mask14_423_1303" style="mask-type:luminance" maskUnits="userSpaceOnUse" x="0" y="0" width="392" height="392">
<path d="M0 -3.05176e-05H392V392H0V-3.05176e-05Z" fill="white"/>
</mask>
<g mask="url(#mask14_423_1303)">
<path fill-rule="evenodd" clip-rule="evenodd" d="M238.168 21.8538C249.567 32.5589 250.132 50.4781 239.427 61.8782C228.723 73.2788 210.803 73.8425 199.402 63.1373C188.003 52.4328 187.439 34.5136 198.143 23.1129C208.848 11.7135 226.768 11.1498 238.168 21.8538Z" fill="#E20613" fill-opacity="0.9"/>
</g>
<mask id="mask15_423_1303" style="mask-type:luminance" maskUnits="userSpaceOnUse" x="0" y="0" width="392" height="392">
<path d="M0 -3.05176e-05H392V392H0V-3.05176e-05Z" fill="white"/>
</mask>
<g mask="url(#mask15_423_1303)">
<path fill-rule="evenodd" clip-rule="evenodd" d="M188.382 74.8731L188.384 74.8737C192.186 78.4451 192.377 84.4795 188.805 88.2825L146.103 133.758C142.533 137.562 136.498 137.751 132.695 134.18C128.891 130.608 128.701 124.574 132.272 120.77L174.974 75.2954C178.545 71.4918 184.579 71.3018 188.382 74.8731Z" fill="#463D3B"/>
</g>
<mask id="mask16_423_1303" style="mask-type:luminance" maskUnits="userSpaceOnUse" x="0" y="0" width="392" height="392">
<path d="M0 -3.05176e-05H392V392H0V-3.05176e-05Z" fill="white"/>
</mask>
<g mask="url(#mask16_423_1303)">
<path fill-rule="evenodd" clip-rule="evenodd" d="M175.541 102.408C172.197 100.143 173.834 94.426 170.957 96.0023C168.917 97.1195 171.554 107.372 172.42 107.344C175.364 107.251 174.948 103.741 175.541 102.408Z" fill="#F28F62"/>
</g>
<mask id="mask17_423_1303" style="mask-type:luminance" maskUnits="userSpaceOnUse" x="0" y="0" width="392" height="392">
<path d="M0 -3.05176e-05H392V392H0V-3.05176e-05Z" fill="white"/>
</mask>
<g mask="url(#mask17_423_1303)">
<path fill-rule="evenodd" clip-rule="evenodd" d="M230.72 19.9023C237.738 25.4217 238.085 34.6605 231.495 40.5381C224.904 46.4157 213.871 46.7062 206.852 41.1867C199.832 35.6678 199.486 26.4291 206.076 20.5514C212.667 14.6744 223.7 14.3834 230.72 19.9023Z" fill="#F64F52"/>
</g>
</g>
<defs>
<clipPath id="clip0_423_1303">
<rect width="392" height="392" fill="white"/>
</clipPath>
</defs>
</svg>
