<svg width="40" height="40" viewBox="0 0 40 40" fill="none" xmlns="http://www.w3.org/2000/svg">
<path d="M23.3336 6.66699H16.667C10.382 6.66699 7.23862 6.66699 5.28695 8.62033C3.88029 10.0253 3.48695 12.0487 3.37695 15.417H36.6236C36.5136 12.0487 36.1203 10.0253 34.7136 8.62033C32.7619 6.66699 29.6186 6.66699 23.3336 6.66699Z" fill="url(#paint0_linear_505_3605)"/>
<path fill-rule="evenodd" clip-rule="evenodd" d="M23.333 33.3337H16.6663C10.3813 33.3337 7.23801 33.3337 5.28634 31.3803C3.33467 29.427 3.33301 26.2853 3.33301 20.0003C3.33301 19.2648 3.33412 18.5703 3.33634 17.917H36.663C36.6652 18.5703 36.6663 19.2648 36.6663 20.0003C36.6663 26.2853 36.6663 29.4287 34.713 31.3803C32.7597 33.332 29.618 33.3337 23.333 33.3337ZM26.7413 20.417C27.463 20.417 28.1247 20.417 28.6613 20.4887C29.2547 20.5687 29.8797 20.7553 30.3947 21.272C30.9097 21.7887 31.098 22.412 31.178 23.0053C31.2497 23.5437 31.2497 24.2053 31.2497 24.9253V25.0753C31.2497 25.797 31.2497 26.4587 31.178 26.9953C31.098 27.5887 30.9113 28.2137 30.3947 28.7287C29.878 29.2437 29.2547 29.432 28.6613 29.512C28.123 29.5837 27.4613 29.5837 26.7413 29.5837H26.5913C25.8697 29.5837 25.208 29.5837 24.6713 29.512C24.078 29.432 23.453 29.2453 22.938 28.7287C22.423 28.212 22.2347 27.5887 22.1547 26.9953C22.083 26.457 22.083 25.7953 22.083 25.0753V24.9253C22.083 24.2037 22.083 23.542 22.1547 23.0053C22.2347 22.412 22.4213 21.787 22.938 21.272C23.4547 20.757 24.078 20.5687 24.6713 20.4887C25.2097 20.417 25.8713 20.417 26.5913 20.417H26.7413ZM8.74967 22.5003C8.74967 22.1688 8.88137 21.8509 9.11579 21.6164C9.35021 21.382 9.66815 21.2503 9.99967 21.2503H13.333C13.6645 21.2503 13.9825 21.382 14.2169 21.6164C14.4513 21.8509 14.583 22.1688 14.583 22.5003C14.583 22.8318 14.4513 23.1498 14.2169 23.3842C13.9825 23.6186 13.6645 23.7503 13.333 23.7503H9.99967C9.66815 23.7503 9.35021 23.6186 9.11579 23.3842C8.88137 23.1498 8.74967 22.8318 8.74967 22.5003ZM8.74967 27.5003C8.74967 27.1688 8.88137 26.8509 9.11579 26.6164C9.35021 26.382 9.66815 26.2503 9.99967 26.2503H16.6663C16.9979 26.2503 17.3158 26.382 17.5502 26.6164C17.7846 26.8509 17.9163 27.1688 17.9163 27.5003C17.9163 27.8318 17.7846 28.1498 17.5502 28.3842C17.3158 28.6186 16.9979 28.7503 16.6663 28.7503H9.99967C9.66815 28.7503 9.35021 28.6186 9.11579 28.3842C8.88137 28.1498 8.74967 27.8318 8.74967 27.5003Z" fill="url(#paint1_linear_505_3605)"/>
<path d="M24.7047 23.0387L24.7097 23.037L24.7263 23.0287C24.8162 22.9968 24.9097 22.9761 25.0047 22.967C25.3547 22.9203 25.8447 22.917 26.6663 22.917C27.488 22.917 27.978 22.9203 28.328 22.967C28.429 22.9774 28.5281 23.0009 28.623 23.037L28.628 23.0387L28.6297 23.0437L28.638 23.0603C28.653 23.097 28.678 23.177 28.6997 23.3387C28.7463 23.6887 28.7497 24.1787 28.7497 25.0003C28.7497 25.822 28.7463 26.312 28.6997 26.662C28.6893 26.763 28.6657 26.8621 28.6297 26.957L28.628 26.962L28.623 26.9637L28.6063 26.972C28.5164 27.0038 28.423 27.0246 28.328 27.0337C27.978 27.0803 27.488 27.0837 26.6663 27.0837C25.8447 27.0837 25.3547 27.0803 25.0047 27.0337C24.9037 27.0233 24.8045 26.9997 24.7097 26.9637L24.7047 26.962L24.703 26.957L24.6947 26.9403C24.6628 26.8504 24.6421 26.7569 24.633 26.662C24.5863 26.312 24.583 25.822 24.583 25.0003C24.583 24.1787 24.5863 23.6887 24.633 23.3387C24.6434 23.2377 24.6669 23.1385 24.703 23.0437L24.7047 23.0387Z" fill="url(#paint2_linear_505_3605)"/>
<defs>
<linearGradient id="paint0_linear_505_3605" x1="36.6236" y1="11.68" x2="3.37808" y2="12.0537" gradientUnits="userSpaceOnUse">
<stop stop-color="#E20512"/>
<stop offset="1" stop-color="#AD010B"/>
</linearGradient>
<linearGradient id="paint1_linear_505_3605" x1="36.6663" y1="26.7495" x2="3.33129" y2="26.9627" gradientUnits="userSpaceOnUse">
<stop stop-color="#E20512"/>
<stop offset="1" stop-color="#AD010B"/>
</linearGradient>
<linearGradient id="paint2_linear_505_3605" x1="28.7497" y1="25.3041" x2="24.5827" y2="25.3165" gradientUnits="userSpaceOnUse">
<stop stop-color="#E20512"/>
<stop offset="1" stop-color="#AD010B"/>
</linearGradient>
</defs>
</svg>
