<svg width="24" height="24" viewBox="0 0 24 24" fill="none" xmlns="http://www.w3.org/2000/svg">
<g clip-path="url(#clip0_676_4610)">
<path d="M12 1.51001C12.2128 1.51001 12.3842 1.62733 12.4619 1.82935V1.83032L14.877 8.08521L15.1104 8.68872L15.7568 8.72388L22.4463 9.08325L22.4531 9.08423C22.663 9.09441 22.8315 9.22013 22.8994 9.42896C22.9625 9.62297 22.9091 9.83183 22.7285 9.98657L17.5342 14.2092L17.0322 14.6174L17.1992 15.2424L18.9238 21.7219L18.9258 21.7297C18.9757 21.9113 18.917 22.1096 18.7471 22.2463C18.6424 22.3071 18.5279 22.34 18.4355 22.3401C18.3225 22.3401 18.2413 22.31 18.1914 22.2756L18.1807 22.2678L18.1689 22.261L12.5439 18.6155L12 18.2629L11.4561 18.6155L5.83105 22.261L5.82617 22.2639C5.66576 22.3693 5.45341 22.3755 5.25977 22.2405H5.26074C5.17981 22.1828 5.1183 22.1016 5.08496 22.0081C5.05166 21.9143 5.04773 21.812 5.07422 21.7161L5.07617 21.7073L6.80176 15.2268L6.96777 14.6018L6.46582 14.1936L1.26074 9.96411L1.25684 9.96118L1.20312 9.9104C1.15376 9.8564 1.11667 9.79171 1.0957 9.72095C1.0677 9.62643 1.06985 9.52555 1.10059 9.43188L1.10156 9.42896C1.16954 9.22006 1.33779 9.09423 1.54785 9.08423L1.55371 9.08325L8.24414 8.72388L8.88965 8.68872L9.12305 8.08521L11.5381 1.83032V1.82935C11.6158 1.6274 11.7873 1.51009 12 1.51001Z" stroke="url(#paint0_linear_676_4610)" stroke-width="2"/>
</g>
<defs>
<linearGradient id="paint0_linear_676_4610" x1="23.9251" y1="13.5912" x2="0.0741948" y2="13.6649" gradientUnits="userSpaceOnUse">
<stop stop-color="#E20512"/>
<stop offset="1" stop-color="#AD010B"/>
</linearGradient>
<clipPath id="clip0_676_4610">
<rect width="24" height="24" fill="white"/>
</clipPath>
</defs>
</svg>
