<svg width="17" height="17" viewBox="0 0 17 17" fill="none" xmlns="http://www.w3.org/2000/svg">
<path d="M7.08317 3.54167H9.9165C9.9165 3.16594 9.76725 2.80561 9.50157 2.53993C9.2359 2.27426 8.87556 2.125 8.49984 2.125C8.12411 2.125 7.76378 2.27426 7.4981 2.53993C7.23243 2.80561 7.08317 3.16594 7.08317 3.54167ZM6.02067 3.54167C6.02067 3.2161 6.0848 2.89372 6.20939 2.59293C6.33398 2.29214 6.51659 2.01884 6.7468 1.78863C6.97701 1.55842 7.25032 1.37581 7.5511 1.25122C7.85189 1.12663 8.17427 1.0625 8.49984 1.0625C8.82541 1.0625 9.14779 1.12663 9.44857 1.25122C9.74936 1.37581 10.0227 1.55842 10.2529 1.78863C10.4831 2.01884 10.6657 2.29214 10.7903 2.59293C10.9149 2.89372 10.979 3.2161 10.979 3.54167H15.0519C15.1928 3.54167 15.3279 3.59764 15.4276 3.69727C15.5272 3.79689 15.5832 3.93202 15.5832 4.07292C15.5832 4.21381 15.5272 4.34894 15.4276 4.44857C15.3279 4.5482 15.1928 4.60417 15.0519 4.60417H14.1169L13.2882 13.1828C13.2246 13.8401 12.9185 14.4502 12.4294 14.894C11.9404 15.3378 11.3036 15.5836 10.6433 15.5833H6.35642C5.69616 15.5834 5.05953 15.3376 4.57068 14.8938C4.08182 14.45 3.77577 13.84 3.71221 13.1828L2.88275 4.60417H1.94775C1.80686 4.60417 1.67173 4.5482 1.5721 4.44857C1.47247 4.34894 1.4165 4.21381 1.4165 4.07292C1.4165 3.93202 1.47247 3.79689 1.5721 3.69727C1.67173 3.59764 1.80686 3.54167 1.94775 3.54167H6.02067ZM7.43734 6.90625C7.43734 6.76535 7.38137 6.63023 7.28174 6.5306C7.18211 6.43097 7.04698 6.375 6.90609 6.375C6.76519 6.375 6.63007 6.43097 6.53044 6.5306C6.43081 6.63023 6.37484 6.76535 6.37484 6.90625V12.2188C6.37484 12.3596 6.43081 12.4948 6.53044 12.5944C6.63007 12.694 6.76519 12.75 6.90609 12.75C7.04698 12.75 7.18211 12.694 7.28174 12.5944C7.38137 12.4948 7.43734 12.3596 7.43734 12.2188V6.90625ZM10.0936 6.375C9.95269 6.375 9.81757 6.43097 9.71794 6.5306C9.61831 6.63023 9.56234 6.76535 9.56234 6.90625V12.2188C9.56234 12.3596 9.61831 12.4948 9.71794 12.5944C9.81757 12.694 9.95269 12.75 10.0936 12.75C10.2345 12.75 10.3696 12.694 10.4692 12.5944C10.5689 12.4948 10.6248 12.3596 10.6248 12.2188V6.90625C10.6248 6.76535 10.5689 6.63023 10.4692 6.5306C10.3696 6.43097 10.2345 6.375 10.0936 6.375Z" fill="#FF1616"/>
</svg>
