<svg width="80" height="80" viewBox="0 0 80 80" fill="none" xmlns="http://www.w3.org/2000/svg">
<path d="M20.0002 66.6667C18.1668 66.6667 16.5979 66.0145 15.2935 64.7101C13.9891 63.4056 13.3357 61.8356 13.3335 60.0001V53.3334C13.3335 52.3889 13.6535 51.5978 14.2935 50.9601C14.9335 50.3223 15.7246 50.0023 16.6668 50.0001C17.6091 49.9978 18.4013 50.3178 19.0435 50.9601C19.6857 51.6023 20.0046 52.3934 20.0002 53.3334V60.0001H60.0002V53.3334C60.0002 52.3889 60.3202 51.5978 60.9602 50.9601C61.6002 50.3223 62.3913 50.0023 63.3335 50.0001C64.2757 49.9978 65.0679 50.3178 65.7102 50.9601C66.3524 51.6023 66.6713 52.3934 66.6668 53.3334V60.0001C66.6668 61.8334 66.0146 63.4034 64.7102 64.7101C63.4057 66.0167 61.8357 66.6689 60.0002 66.6667H20.0002ZM36.6668 26.1667L30.4168 32.4167C29.7502 33.0834 28.9591 33.4034 28.0435 33.3767C27.1279 33.35 26.3357 33.0023 25.6668 32.3334C25.0557 31.6667 24.7357 30.8889 24.7068 30.0001C24.6779 29.1112 24.9979 28.3334 25.6668 27.6667L37.6668 15.6667C38.0002 15.3334 38.3613 15.0978 38.7502 14.9601C39.1391 14.8223 39.5557 14.7523 40.0002 14.7501C40.4446 14.7478 40.8613 14.8178 41.2502 14.9601C41.6391 15.1023 42.0002 15.3378 42.3335 15.6667L54.3335 27.6667C55.0002 28.3334 55.3202 29.1112 55.2935 30.0001C55.2668 30.8889 54.9468 31.6667 54.3335 32.3334C53.6668 33 52.8757 33.3478 51.9602 33.3767C51.0446 33.4056 50.2524 33.0856 49.5835 32.4167L43.3335 26.1667V50.0001C43.3335 50.9445 43.0135 51.7367 42.3735 52.3767C41.7335 53.0167 40.9424 53.3356 40.0002 53.3334C39.0579 53.3312 38.2668 53.0112 37.6268 52.3734C36.9868 51.7356 36.6668 50.9445 36.6668 50.0001V26.1667Z" fill="#99A1AF"/>
</svg>
