<svg width="29" height="34" viewBox="0 0 29 34" fill="none" xmlns="http://www.w3.org/2000/svg">
<path d="M5 4.71656C5 7.29489 7.87667 10.0132 10.25 11.8166C11.5817 12.8266 12.2467 13.3332 13.3333 13.3332C14.42 13.3332 15.085 12.8266 16.4167 11.8166C18.79 10.0116 21.6667 7.29323 21.6667 4.71656C21.6667 0.0665598 17.0833 -1.67177 13.3333 1.92156C9.58333 -1.67177 5 0.0665598 5 4.71656ZM3.76667 32.3132H3.33333C1.76167 32.3132 0.976667 32.3132 0.488334 31.8249C3.47694e-07 31.3399 0 30.5532 0 28.9816V27.1282C0 26.2649 -1.73847e-07 25.8332 0.221666 25.4466C0.443333 25.0599 0.778333 24.8666 1.44833 24.4766C5.85833 21.9116 12.12 20.4682 16.2983 22.9599C16.5794 23.1277 16.8294 23.3321 17.0483 23.5732C17.2726 23.8183 17.4454 24.1059 17.5565 24.419C17.6676 24.7321 17.7148 25.0643 17.6952 25.396C17.6756 25.7276 17.5897 26.0519 17.4425 26.3498C17.2953 26.6476 17.0899 26.9129 16.8383 27.1299C16.6379 27.3202 16.3934 27.4576 16.1267 27.5299C16.3267 27.5066 16.5183 27.4805 16.7017 27.4516C18.22 27.2099 19.495 26.3966 20.6617 25.5149L23.675 23.2399C24.2129 22.8496 24.8604 22.6394 25.525 22.6394C26.1896 22.6394 26.8371 22.8496 27.375 23.2399C28.33 23.9616 28.6233 25.1499 28.0183 26.1199C27.3133 27.2499 26.32 28.6949 25.3667 29.5782C24.4133 30.4616 22.99 31.2516 21.83 31.8116C20.5433 32.4332 19.1233 32.7899 17.6783 33.0249C14.7483 33.4982 11.695 33.4249 8.795 32.8282C7.14054 32.4877 5.45582 32.314 3.76667 32.3132Z" fill="url(#paint0_linear_106_230)"/>
<defs>
<linearGradient id="paint0_linear_106_230" x1="28.3336" y1="19.0975" x2="-0.00244032" y2="19.1688" gradientUnits="userSpaceOnUse">
<stop stop-color="#E20512"/>
<stop offset="1" stop-color="#AD010B"/>
</linearGradient>
</defs>
</svg>
