<svg width="38" height="33" viewBox="0 0 38 33" fill="none" xmlns="http://www.w3.org/2000/svg">
<path d="M36.2106 29.9956H33.7527V12.4956C33.7527 11.8326 33.4894 11.1967 33.0205 10.7278C32.5517 10.259 31.9158 9.9956 31.2527 9.9956H24.3777C24.212 9.9956 24.053 10.0615 23.9358 10.1787C23.8186 10.2959 23.7527 10.4548 23.7527 10.6206V29.9956H21.2527V2.55967C21.2569 2.17026 21.1724 1.78502 21.0056 1.4331C20.8389 1.08118 20.5942 0.771815 20.2902 0.528416C19.8759 0.205348 19.3702 0.0210508 18.8452 0.0016972C18.3201 -0.0176565 17.8023 0.128918 17.3652 0.420603L4.86525 8.7456C4.52234 8.97439 4.24133 9.28441 4.04723 9.64807C3.85313 10.0117 3.75196 10.4178 3.75275 10.83V29.9956H1.29493C0.971912 29.9908 0.659067 30.1086 0.41933 30.3251C0.179593 30.5417 0.0307517 30.841 0.00274647 31.1628C-0.00860653 31.3338 0.0153175 31.5053 0.0730326 31.6666C0.130748 31.828 0.221021 31.9757 0.338245 32.1007C0.45547 32.2257 0.597142 32.3253 0.754461 32.3932C0.91178 32.4611 1.08139 32.496 1.25275 32.4956H36.2527C36.4241 32.496 36.5937 32.4611 36.751 32.3932C36.9084 32.3253 37.05 32.2257 37.1672 32.1007C37.2845 31.9757 37.3747 31.828 37.4325 31.6666C37.4902 31.5053 37.5141 31.3338 37.5027 31.1628C37.4747 30.841 37.3259 30.5417 37.0862 30.3251C36.8464 30.1086 36.5336 29.9908 36.2106 29.9956ZM10.6277 26.2456C10.6281 26.417 10.5933 26.5866 10.5253 26.7439C10.4574 26.9012 10.3578 27.0429 10.2329 27.1601C10.1079 27.2773 9.9601 27.3676 9.79876 27.4253C9.63741 27.483 9.46592 27.507 9.29493 27.4956C8.97282 27.4676 8.6733 27.3185 8.45671 27.0784C8.24013 26.8384 8.12258 26.5251 8.12775 26.2019V23.7878C8.12334 23.4649 8.2412 23.1522 8.45767 22.9126C8.67415 22.6729 8.97323 22.524 9.29493 22.4956C9.46592 22.4843 9.63741 22.5082 9.79876 22.5659C9.9601 22.6236 10.1079 22.7139 10.2329 22.8311C10.3578 22.9483 10.4574 23.09 10.5253 23.2473C10.5933 23.4046 10.6281 23.5742 10.6277 23.7456V26.2456ZM10.6277 17.4956C10.6281 17.667 10.5933 17.8366 10.5253 17.9939C10.4574 18.1512 10.3578 18.2929 10.2329 18.4101C10.1079 18.5273 9.9601 18.6176 9.79876 18.6753C9.63741 18.733 9.46592 18.757 9.29493 18.7456C8.97296 18.7172 8.67365 18.5681 8.45714 18.3281C8.24062 18.0881 8.12295 17.775 8.12775 17.4519V15.0378C8.12334 14.7149 8.2412 14.4022 8.45767 14.1626C8.67415 13.9229 8.97323 13.774 9.29493 13.7456C9.46592 13.7343 9.63741 13.7582 9.79876 13.8159C9.9601 13.8736 10.1079 13.9639 10.2329 14.0811C10.3578 14.1983 10.4574 14.34 10.5253 14.4973C10.5933 14.6546 10.6281 14.8242 10.6277 14.9956V17.4956ZM16.8777 26.2456C16.8781 26.417 16.8433 26.5866 16.7753 26.7439C16.7074 26.9012 16.6078 27.0429 16.4829 27.1601C16.3579 27.2773 16.2101 27.3676 16.0488 27.4253C15.8874 27.483 15.7159 27.507 15.5449 27.4956C15.2234 27.4676 14.9243 27.319 14.7078 27.0796C14.4913 26.8402 14.3734 26.5277 14.3777 26.205V23.7878C14.3737 23.4651 14.4918 23.1529 14.7082 22.9136C14.9246 22.6742 15.2235 22.5255 15.5449 22.4972C15.7159 22.4858 15.8874 22.5097 16.0488 22.5675C16.2101 22.6252 16.3579 22.7154 16.4829 22.8327C16.6078 22.9499 16.7074 23.0916 16.7753 23.2489C16.8433 23.4062 16.8781 23.5758 16.8777 23.7472V26.2456ZM16.8777 17.4956C16.8781 17.667 16.8433 17.8366 16.7753 17.9939C16.7074 18.1512 16.6078 18.2929 16.4829 18.4101C16.3579 18.5273 16.2101 18.6176 16.0488 18.6753C15.8874 18.733 15.7159 18.757 15.5449 18.7456C15.2235 18.7173 14.9246 18.5685 14.7082 18.3292C14.4918 18.0899 14.3737 17.7776 14.3777 17.455V15.0378C14.3737 14.7151 14.4918 14.4029 14.7082 14.1636C14.9246 13.9242 15.2235 13.7755 15.5449 13.7472C15.7159 13.7358 15.8874 13.7597 16.0488 13.8175C16.2101 13.8752 16.3579 13.9654 16.4829 14.0827C16.6078 14.1999 16.7074 14.3416 16.7753 14.4989C16.8433 14.6562 16.8781 14.8258 16.8777 14.9972V17.4956Z" fill="url(#paint0_linear_163_317)"/>
<defs>
<linearGradient id="paint0_linear_163_317" x1="37.5055" y1="18.6173" x2="-0.00303012" y2="18.7454" gradientUnits="userSpaceOnUse">
<stop stop-color="#E20512"/>
<stop offset="1" stop-color="#AD010B"/>
</linearGradient>
</defs>
</svg>
