<svg width="40" height="40" viewBox="0 0 40 40" fill="none" xmlns="http://www.w3.org/2000/svg">
<path d="M22.3949 30.46C24.0415 27.3567 29.5299 27.3567 29.5299 27.3567C35.2499 27.2967 36.0232 23.8234 36.5399 22.0684C36.0842 25.7036 34.4441 29.0876 31.873 31.6976C29.3019 34.3075 25.9428 35.9982 22.3149 36.5084C21.7765 35.375 21.1399 32.825 22.3949 30.46Z" fill="url(#paint0_linear_163_312)"/>
<path d="M8.34352 9.72333L7.65685 9.13666C7.6007 9.0874 7.54623 9.03626 7.49352 8.98333C4.80715 12.0238 3.3273 15.9428 3.33352 20C3.33352 29.1 10.6285 36.5 19.6902 36.6633C19.1018 34.905 18.7169 32.0567 20.1868 29.2883C21.5368 26.745 24.2535 25.7433 25.9835 25.3167C27.1106 25.0447 28.2629 24.8911 29.4219 24.8583H29.5102C31.8118 24.8317 32.7052 24.1533 33.1169 23.6883C33.6269 23.115 33.8268 22.435 34.1052 21.4867L34.1419 21.3633C34.3001 20.8253 34.6346 20.3561 35.0916 20.0312C35.5487 19.7062 36.1017 19.5444 36.6618 19.5717C36.5648 15.5729 35.0272 11.7437 32.3319 8.78833C32.2785 9.08333 32.2152 9.36 32.1535 9.60333C31.8702 10.705 31.3969 11.895 30.8135 12.7783C30.2452 13.645 29.2318 14.4167 28.5602 14.9C28.0518 15.265 27.5319 15.5667 27.1052 15.815L26.9518 15.9033C26.5652 16.125 26.2585 16.3033 25.9652 16.495C25.3719 16.8867 25.0152 17.235 24.7752 17.7067C24.9218 18.2433 25.0252 18.8617 25.0285 19.5067C25.0319 21.0433 24.2452 22.2567 23.3069 23.0133C22.3613 23.7695 21.1842 24.1768 19.9735 24.1667C15.0568 24.1133 12.1735 20.1017 11.8018 15.97C11.6935 14.7683 11.1535 13.4733 10.3985 12.2667C9.82046 11.3378 9.13027 10.4836 8.34352 9.72333Z" fill="url(#paint1_linear_163_312)"/>
<path d="M14.2915 15.7449C13.9799 12.2716 11.3015 9.03494 9.99987 7.8516L9.2832 7.23494C12.2825 4.70956 16.079 3.32738 19.9999 3.33327C23.6899 3.33327 27.0999 4.53327 29.8599 6.55994C30.2499 7.74494 29.5065 10.2199 28.7265 11.4033C28.4432 11.8316 27.8032 12.3649 27.0999 12.8699C25.5165 14.0083 23.5165 14.5699 22.4999 16.6666C22.2458 17.1945 22.1965 17.7978 22.3615 18.3599C22.4615 18.7266 22.5282 19.1249 22.5282 19.5133C22.5315 20.7716 21.2582 21.6799 19.9999 21.6666C16.7265 21.6316 14.5832 18.9933 14.2915 15.7449Z" fill="url(#paint2_linear_163_312)"/>
<defs>
<linearGradient id="paint0_linear_163_312" x1="36.5399" y1="30.3413" x2="21.6658" y2="30.3866" gradientUnits="userSpaceOnUse">
<stop stop-color="#E20512"/>
<stop offset="1" stop-color="#AD010B"/>
</linearGradient>
<linearGradient id="paint1_linear_163_312" x1="36.6619" y1="24.7584" x2="3.33083" y2="24.8763" gradientUnits="userSpaceOnUse">
<stop stop-color="#E20512"/>
<stop offset="1" stop-color="#AD010B"/>
</linearGradient>
<linearGradient id="paint2_linear_163_312" x1="29.967" y1="13.8368" x2="9.28152" y2="13.9059" gradientUnits="userSpaceOnUse">
<stop stop-color="#E20512"/>
<stop offset="1" stop-color="#AD010B"/>
</linearGradient>
</defs>
</svg>
