<svg width="40" height="32" viewBox="0 0 40 32" fill="none" xmlns="http://www.w3.org/2000/svg">
<g clip-path="url(#clip0_163_310)">
<path d="M30.5004 11.9996H21.0004V15.4996C21.0004 17.9809 18.9817 19.9996 16.5004 19.9996C14.0192 19.9996 12.0004 17.9809 12.0004 15.4996V7.89962L7.9442 10.3371C6.73795 11.0559 6.00045 12.3621 6.00045 13.7621V16.7184L1.00045 19.6059C0.0441989 20.1559 -0.287051 21.3809 0.269199 22.3371L5.2692 30.9996C5.8192 31.9559 7.0442 32.2809 8.00045 31.7309L14.4629 27.9996H23.0004C25.2067 27.9996 27.0004 26.2059 27.0004 23.9996H28.0004C29.1067 23.9996 30.0004 23.1059 30.0004 21.9996V17.9996H30.5004C31.3317 17.9996 32.0005 17.3309 32.0005 16.4996V13.4996C32.0005 12.6684 31.3317 11.9996 30.5004 11.9996ZM39.7317 9.66212L34.7317 0.999625C34.1817 0.0433745 32.9567 -0.281625 32.0005 0.268375L25.5379 3.99962H19.1504C18.4004 3.99962 17.6692 4.21212 17.0317 4.60587L14.9379 5.91212C14.3504 6.27462 14.0004 6.91837 14.0004 7.60587V15.4996C14.0004 16.8809 15.1192 17.9996 16.5004 17.9996C17.8817 17.9996 19.0004 16.8809 19.0004 15.4996V9.99962H30.5004C32.4317 9.99962 34.0005 11.5684 34.0005 13.4996V15.2809L39.0005 12.3934C39.9567 11.8371 40.2817 10.6184 39.7317 9.66212Z" fill="url(#paint0_linear_163_310)"/>
</g>
<defs>
<linearGradient id="paint0_linear_163_310" x1="39.9991" y1="18.3328" x2="-0.00412746" y2="18.4807" gradientUnits="userSpaceOnUse">
<stop stop-color="#E20512"/>
<stop offset="1" stop-color="#AD010B"/>
</linearGradient>
<clipPath id="clip0_163_310">
<rect width="40" height="32" fill="white"/>
</clipPath>
</defs>
</svg>
